<svg xmlns="http://www.w3.org/2000/svg" height="48" viewBox="0 -960 960 960" width="48"><path d="M480.5-59q-88.14 0-166.467-32.104-78.328-32.103-134.577-88.352-56.249-56.249-88.352-134.577Q59-392.36 59-480.5q0-88.396 31.926-165.512 31.925-77.116 88.674-133.942 56.748-56.826 134.812-89.436Q392.476-902 480-902q73.957 0 138.987 21.819Q684.017-858.361 737-817l-67 67q-39.081-26.647-87.085-43.323Q534.91-810 480-810q-140.597 0-235.298 94.087Q150-621.826 150-480.413T244.578-244.5q94.579 94.5 235 94.5Q620-150 715-244.208T810-480q0-26.207-4-49.913-4-23.707-11-47.087l73-73q16 39.877 25 81.672 9 41.795 9 87.284 0 89.044-32.61 166.87-32.61 77.826-89.436 134.574-56.826 56.749-133.942 88.674Q568.896-59 480.5-59ZM419-285 245-460l63-64 111 111 419-420 65 64-484 484Z"/></svg>