<svg xmlns="http://www.w3.org/2000/svg" version="1.0" width="512.000000pt" height="512.000000pt" viewBox="0 0 512.000000 512.000000" preserveAspectRatio="xMidYMid meet">

<g transform="translate(0.000000,512.000000) scale(0.100000,-0.100000)" fill="#ffffff" stroke="none">
<path d="M2315 5109 c-800 -83 -1501 -518 -1927 -1196 -291 -463 -428 -1035 -378 -1578 57 -610 319 -1166 751 -1592 401 -396 874 -631 1449 -720 142 -21 528 -25 665 -5 601 86 1095 330 1502 743 207 209 342 398 472 660 300 601 352 1281 149 1918 -123 386 -330 726 -621 1020 -399 404 -893 653 -1462 737 -123 18 -478 26 -600 13z m438 -925 c347 -71 631 -359 702 -713 26 -127 17 -327 -20 -441 -100 -309 -315 -522 -622 -617 -81 -25 -102 -27 -253 -27 -151 0 -172 2 -253 27 -306 94 -522 308 -622 617 -37 114 -46 314 -20 441 35 176 119 334 246 461 225 226 527 316 842 252z m132 -2198 c344 -62 608 -176 889 -384 93 -69 336 -301 336 -322 0 -18 -228 -239 -318 -308 -386 -296 -824 -436 -1307 -419 -419 15 -797 149 -1138 405 -92 68 -337 302 -337 320 0 16 158 177 248 253 178 149 362 260 562 339 120 48 328 103 445 119 44 6 94 13 110 15 70 10 424 -3 510 -18z" fill="#ffffff"/>
</g>
</svg>