<svg xmlns="http://www.w3.org/2000/svg" version="1.0" width="512.000000pt" height="512.000000pt" viewBox="0 0 512.000000 512.000000" preserveAspectRatio="xMidYMid meet">

<g transform="translate(0.000000,512.000000) scale(0.100000,-0.100000)" fill="#ffffff" stroke="none">
<path d="M1405 4674 c-536 -83 -879 -429 -960 -969 -22 -149 -22 -2141 0 -2290 43 -285 151 -503 333 -676 175 -166 398 -265 672 -299 119 -14 2104 -14 2225 1 497 61 849 360 970 824 12 49 28 131 34 180 15 124 15 2106 0 2230 -33 268 -133 492 -296 665 -176 186 -391 292 -676 334 -147 22 -2161 22 -2302 0z m675 -986 c79 -40 110 -122 79 -205 -13 -36 -513 -538 -555 -558 -40 -19 -95 -19 -137 -1 -52 22 -233 213 -247 261 -25 86 38 184 128 200 48 8 113 -17 151 -59 14 -14 29 -26 34 -26 5 0 96 88 204 195 227 228 249 240 343 193z m1717 -309 c43 -16 92 -69 104 -111 19 -71 -22 -157 -87 -184 -27 -11 -146 -14 -630 -14 -584 0 -597 0 -633 21 -51 29 -74 65 -79 124 -6 77 37 144 104 165 44 13 1186 12 1221 -1z m-1707 -1187 c51 -25 80 -74 80 -134 0 -27 -5 -59 -11 -71 -16 -32 -519 -536 -553 -553 -32 -18 -99 -20 -136 -6 -14 6 -75 61 -136 124 -97 98 -113 119 -119 156 -5 34 -2 52 17 90 54 109 177 125 268 37 l36 -35 184 186 c102 102 199 195 215 205 38 24 109 25 155 1z m1737 -322 c120 -73 92 -253 -45 -289 -30 -8 -214 -11 -619 -9 -562 3 -579 4 -613 24 -105 61 -108 213 -6 275 30 18 60 19 641 19 587 0 611 -1 642 -20z" fill="#ffffff"/>
</g>
</svg>