<svg xmlns="http://www.w3.org/2000/svg" version="1.0" width="500.000000pt" height="500.000000pt" viewBox="0 0 500.000000 500.000000" preserveAspectRatio="xMidYMid meet">

<g transform="translate(0.000000,500.000000) scale(0.100000,-0.100000)" fill="#3d4250" stroke="none">
<path d="M2559 4976 c39 -29 50 -24 -114 -51 -55 -9 -118 -20 -140 -25 -22 -5 -62 -12 -89 -15 -27 -4 -59 -11 -72 -17 -21 -10 -30 -6 -80 42 -40 38 -58 50 -67 41 -8 -8 2 -23 38 -56 26 -25 45 -48 41 -52 -3 -3 -42 6 -87 20 -44 15 -88 27 -98 27 -29 0 -32 12 -9 37 31 33 13 42 -20 10 -30 -29 -52 -33 -84 -16 -12 7 -38 8 -67 4 -25 -4 -41 -9 -36 -10 6 -2 38 -9 73 -16 59 -12 73 -21 53 -33 -5 -3 -27 -37 -51 -76 -38 -63 -48 -72 -106 -100 -35 -16 -75 -30 -87 -30 -25 0 -145 46 -162 61 -5 5 -19 9 -32 9 -21 0 -23 -4 -23 -59 0 -33 5 -63 10 -66 24 -15 8 -45 -40 -74 -28 -17 -53 -31 -55 -31 -9 0 -189 -112 -210 -130 -19 -17 -22 -17 -50 1 -38 24 -101 60 -131 77 -20 11 -24 22 -26 60 -1 44 -2 44 -5 10 -4 -37 -24 -51 -38 -28 -7 12 -35 14 -35 2 0 -4 15 -16 34 -26 32 -17 34 -20 40 -94 4 -43 9 -90 12 -107 5 -31 -7 -42 -185 -172 -13 -10 -37 -6 -124 16 -61 16 -110 24 -113 19 -8 -13 -11 -11 95 -41 51 -14 96 -28 98 -31 3 -3 -6 -16 -20 -30 -14 -14 -39 -45 -57 -70 l-32 -45 -37 17 c-20 9 -52 27 -71 39 -40 26 -85 33 -60 9 8 -7 42 -28 75 -46 33 -18 63 -35 67 -37 5 -2 -2 -23 -13 -46 -57 -110 -69 -171 -70 -346 l-1 -166 -59 -54 -59 -54 0 204 c0 178 17 418 35 506 l6 28 -16 -29 c-26 -44 -45 -263 -45 -514 0 -209 -1 -226 -20 -252 -27 -38 -50 -105 -50 -146 l0 -33 -80 6 c-65 5 -80 3 -80 -8 0 -11 11 -13 43 -11 24 2 59 -3 79 -11 l35 -15 6 -88 c7 -109 43 -238 102 -364 41 -89 93 -255 83 -266 -7 -7 -94 97 -195 232 -88 119 -133 198 -159 279 l-13 40 0 -38 c-1 -27 12 -61 41 -115 39 -72 198 -292 267 -372 17 -19 29 -35 28 -37 -2 -1 -25 4 -52 12 -63 19 -285 21 -285 3 0 -10 24 -12 97 -10 78 3 117 -2 192 -21 l95 -24 28 -89 c55 -173 60 -189 80 -234 11 -25 35 -75 54 -113 19 -37 34 -69 34 -71 0 -2 -15 0 -32 4 -18 5 -60 15 -93 24 -139 35 -189 56 -226 95 -39 41 -161 203 -197 261 -25 41 -30 24 -5 -23 18 -35 122 -177 161 -219 14 -15 23 -31 19 -34 -3 -3 -41 5 -84 19 -43 14 -79 24 -81 22 -10 -10 38 -36 100 -55 97 -28 124 -41 180 -87 26 -21 79 -63 117 -93 38 -30 70 -58 70 -61 1 -10 -60 6 -96 24 -18 10 -42 17 -53 17 -12 0 -36 6 -53 14 -47 20 -169 65 -204 75 -28 8 -29 7 -25 -16 3 -14 25 -39 56 -62 28 -21 70 -53 93 -72 72 -59 87 -70 134 -96 l46 -26 -21 -36 c-41 -70 -49 -77 -113 -91 -35 -8 -63 -17 -63 -21 0 -16 18 -18 53 -7 20 6 40 9 43 5 3 -3 -5 -31 -19 -61 -14 -31 -22 -58 -16 -61 5 -3 16 10 24 29 8 20 22 52 30 71 l15 35 142 0 c120 0 147 -3 170 -18 l27 -18 -65 -49 c-36 -28 -80 -62 -99 -78 -18 -15 -36 -27 -39 -27 -4 0 -23 -11 -44 -23 -20 -13 -50 -32 -66 -41 -19 -12 -25 -21 -18 -28 7 -7 30 2 75 30 35 22 111 65 168 94 57 30 115 61 129 70 23 15 28 15 60 0 34 -17 35 -19 38 -81 2 -48 -2 -78 -18 -116 -18 -45 -26 -54 -59 -64 -21 -6 -49 -11 -63 -11 -14 0 -32 -8 -40 -17 -20 -25 -80 -173 -75 -186 4 -11 40 59 75 146 10 22 18 27 46 27 19 0 37 4 40 9 3 4 19 11 34 14 23 5 34 16 52 59 12 29 25 81 28 115 2 35 7 63 11 63 10 1 306 -114 311 -120 3 -3 30 -21 60 -40 30 -19 58 -38 61 -43 3 -4 18 -46 33 -93 l28 -84 -54 -58 c-74 -80 -133 -132 -150 -132 -8 0 -18 -4 -24 -9 -28 -25 -119 -41 -235 -41 -82 0 -120 -3 -113 -10 12 -12 115 -40 147 -40 12 0 60 -14 107 -30 46 -17 96 -30 111 -30 14 0 50 -10 78 -21 50 -21 51 -23 36 -43 -26 -36 -56 -96 -48 -96 5 0 21 20 36 44 42 67 49 70 104 52 64 -22 75 -30 68 -48 -4 -11 -33 -22 -81 -33 -40 -9 -76 -20 -79 -26 -8 -11 28 -11 80 1 48 11 53 8 25 -18 -12 -11 -17 -23 -12 -26 6 -3 23 10 39 29 40 48 118 64 198 40 30 -8 55 -18 55 -20 0 -2 -24 -20 -54 -39 -30 -19 -57 -40 -61 -46 -13 -21 5 -23 28 -3 12 11 32 24 45 28 12 3 22 10 22 14 0 5 13 14 29 20 23 10 35 9 72 -8 157 -70 222 -103 269 -135 47 -32 80 -45 80 -31 0 8 -161 111 -200 128 -19 8 -53 23 -75 32 -68 28 -86 38 -78 45 5 4 60 21 123 39 63 17 131 37 150 43 52 16 405 21 565 8 317 -26 453 -40 500 -50 28 -6 87 -14 133 -19 45 -4 85 -11 89 -15 4 -3 -13 -43 -36 -87 -24 -44 -41 -83 -38 -86 6 -6 44 53 79 120 26 53 46 58 134 33 68 -19 266 -28 307 -13 l32 11 -30 6 c-28 5 -32 12 -59 93 -26 77 -28 90 -16 112 16 29 7 43 -15 25 -17 -14 -20 -71 -5 -98 11 -20 41 -124 37 -128 -3 -4 -213 12 -295 22 -60 8 -60 2 -8 117 18 40 41 98 50 130 9 31 20 57 24 57 4 0 45 -14 92 -31 95 -34 118 -41 205 -59 164 -34 223 -55 252 -89 11 -14 25 -23 29 -18 4 4 2 13 -4 19 -21 21 -13 28 28 28 22 0 40 2 40 4 0 2 -21 25 -48 52 -26 27 -101 107 -167 178 -66 71 -140 149 -164 173 -50 50 -46 66 19 77 25 4 43 14 50 26 6 11 19 20 28 20 10 0 27 7 39 15 18 13 24 13 49 0 51 -25 78 -79 85 -164 5 -64 14 -93 56 -182 28 -58 54 -126 58 -152 10 -63 30 -62 21 1 -5 40 -51 149 -111 265 -16 31 -20 93 -7 101 4 2 59 -43 121 -102 142 -135 180 -166 189 -158 4 4 -11 24 -33 43 -102 91 -265 246 -265 252 0 3 4 13 10 21 7 12 20 8 77 -23 152 -84 336 -168 345 -159 5 5 -23 24 -73 48 -45 21 -114 56 -153 76 -39 21 -95 50 -123 65 -29 15 -53 30 -53 34 0 37 121 142 200 174 66 26 273 96 275 93 8 -12 25 -191 25 -271 0 -63 4 -96 10 -92 14 8 13 183 -1 276 -14 90 -6 133 16 82 19 -45 47 -149 55 -208 l7 -50 2 58 c1 56 -19 152 -39 189 -19 35 -11 38 90 38 115 0 137 18 28 22 l-73 3 60 18 c72 22 125 56 125 80 0 22 -11 22 -100 -7 -108 -34 -154 -38 -168 -16 -14 23 -5 26 153 41 108 10 148 20 134 33 -3 3 -43 1 -89 -4 -227 -26 -218 -26 -226 4 -9 36 -28 34 -21 -3 l6 -28 -87 -8 c-208 -20 -302 -7 -489 68 -89 36 -108 48 -114 69 -7 25 -6 25 75 32 44 3 146 13 226 22 88 10 269 18 463 21 267 4 317 7 317 19 0 12 -40 14 -252 14 -237 0 -304 -4 -533 -30 -152 -17 -288 -30 -290 -27 -2 3 127 348 142 378 20 42 71 183 78 219 4 19 16 68 28 108 18 66 23 73 41 67 12 -3 44 -9 71 -13 28 -5 57 -12 65 -17 7 -5 64 -17 124 -26 61 -10 129 -23 151 -28 22 -6 94 -14 160 -18 l120 -8 80 -122 c72 -110 95 -138 95 -115 0 4 -33 58 -74 120 l-74 112 37 0 c39 0 56 -20 91 -102 19 -46 30 -57 30 -31 0 11 -14 46 -30 77 l-30 56 35 0 c19 0 35 5 35 10 0 6 -20 10 -45 10 -41 0 -46 3 -75 45 -17 25 -93 108 -168 184 -119 120 -229 256 -344 424 -34 48 -34 50 -5 62 19 9 121 136 152 189 9 16 16 17 70 6 33 -7 78 -15 100 -18 39 -4 72 -30 253 -193 55 -49 63 -54 55 -32 -7 18 -49 61 -95 98 -14 11 -51 44 -84 73 l-58 52 32 0 c52 0 39 28 -44 100 -41 35 -84 74 -96 87 l-20 22 50 88 c28 49 65 119 82 156 29 60 35 67 61 67 21 0 27 4 23 15 -4 8 -12 15 -20 15 -10 0 -12 9 -8 33 5 30 4 31 -10 13 -8 -10 -17 -23 -18 -28 -3 -9 -26 -5 -118 20 -19 6 -80 22 -135 37 -55 15 -124 31 -154 36 -29 4 -65 12 -80 17 -35 13 -123 37 -195 53 -45 10 -70 23 -105 55 -25 22 -59 52 -74 65 -44 38 -67 116 -67 231 l0 97 125 101 c68 55 135 110 147 123 13 12 34 27 48 34 22 10 23 12 7 18 -13 6 -28 -1 -50 -22 -18 -16 -77 -65 -132 -109 -55 -43 -109 -87 -120 -97 -20 -18 -20 -18 -23 33 -3 55 30 239 54 295 40 96 5 85 -102 -32 -49 -54 -139 -149 -200 -212 -105 -108 -113 -114 -132 -101 -11 8 -59 44 -107 80 -48 36 -106 79 -129 95 l-41 31 -3 94 c-3 87 -1 97 27 149 49 94 80 170 71 176 -9 6 -18 -11 -64 -120 -11 -28 -25 -52 -30 -55 -5 -3 -15 15 -21 40 -14 54 -36 97 -64 127 -12 12 -21 28 -21 35 0 9 -3 9 -11 1 -8 -8 -18 -7 -37 3 -20 10 -71 14 -195 14 -136 0 -171 3 -183 15 -9 8 -25 15 -36 15 -19 0 -19 -1 3 -20 21 -17 22 -19 6 -20 -11 0 -30 9 -44 20 -14 11 -35 20 -46 20 -18 0 -16 -4 12 -24z m145 -55 c83 -73 135 -125 131 -129 -3 -3 -18 6 -33 20 -15 14 -47 39 -72 55 -25 17 -56 40 -69 52 l-24 21 23 0 c12 0 32 -8 44 -19z m338 7 c15 -12 13 -23 -20 -125 -20 -61 -40 -115 -44 -119 -17 -16 -19 29 -4 66 20 49 21 89 2 96 -7 3 -37 -4 -67 -15 l-54 -21 -40 40 c-22 21 -53 50 -70 64 l-30 25 156 1 c109 0 160 -4 171 -12z m-365 -48 c37 -28 84 -64 103 -80 l35 -30 -26 -20 c-15 -11 -59 -51 -98 -90 -40 -38 -77 -70 -82 -70 -21 0 -435 208 -452 227 -17 20 -17 21 10 31 15 6 46 13 68 17 22 3 83 12 135 20 52 8 122 21 155 29 33 7 65 14 72 15 7 0 43 -22 80 -49z m477 -92 l18 -73 -26 -46 c-14 -25 -34 -53 -43 -62 -17 -14 -21 -13 -62 22 l-44 38 38 114 c21 63 40 118 42 122 3 5 17 -3 32 -17 19 -18 32 -48 45 -98z m-1262 78 c29 -8 67 -20 83 -26 35 -14 40 -12 -110 -60 -55 -18 -106 -35 -114 -38 -12 -5 43 91 72 124 15 16 7 16 69 0z m1070 -94 c-6 -15 -13 -36 -16 -46 -6 -17 -11 -13 -37 23 -17 23 -30 43 -28 45 2 1 22 9 44 17 46 17 54 8 37 -39z m-845 23 c30 -12 57 -41 123 -132 47 -63 95 -127 108 -142 13 -14 43 -51 67 -82 l43 -55 -26 -42 c-21 -33 -31 -41 -47 -37 -11 4 -51 14 -90 25 -38 10 -83 25 -100 33 -90 45 -183 87 -193 87 -6 0 -23 6 -39 14 -15 8 -66 31 -113 51 -117 52 -145 66 -169 85 l-21 15 27 42 c28 44 67 63 268 126 95 31 113 32 162 12z m753 -30 c11 -13 10 -14 -4 -9 -9 3 -16 10 -16 15 0 13 6 11 20 -6z m16 -47 c24 -17 44 -33 44 -35 0 -15 -58 -144 -80 -180 l-27 -42 -85 53 c-47 29 -90 55 -96 57 -14 5 172 178 191 179 5 0 29 -14 53 -32z m-533 -100 c28 -27 78 -73 109 -100 l57 -51 -25 -33 -26 -33 -56 72 c-30 39 -58 74 -62 77 -11 9 -130 169 -130 175 0 9 71 -48 133 -107z m-848 28 c16 -6 6 -14 -50 -40 l-70 -33 -12 30 c-7 16 -13 47 -13 68 l0 38 63 -28 c34 -16 71 -32 82 -35z m943 -9 l149 -73 -34 -39 -33 -38 -55 48 c-72 61 -191 175 -183 175 4 0 74 -33 156 -73z m1437 9 c-19 -45 -55 -251 -55 -314 0 -46 -3 -51 -48 -89 -26 -22 -67 -50 -90 -62 l-43 -22 -42 33 c-23 18 -54 44 -69 58 l-27 25 92 95 c51 53 137 144 191 203 55 59 101 107 102 107 2 0 -3 -15 -11 -34z m-2215 18 c0 -3 -8 -16 -18 -29 -16 -20 -20 -21 -37 -9 -21 15 -20 15 15 31 29 14 40 15 40 7z m1294 -13 c7 -10 -50 -192 -68 -216 -10 -14 -14 -14 -30 -2 -18 14 -17 18 27 109 26 53 47 100 47 107 0 13 17 15 24 2z m204 -86 l-3 -35 -29 23 -29 23 29 44 29 44 3 -32 c2 -17 2 -47 0 -67z m-1578 50 c17 -9 30 -19 30 -23 0 -4 -22 -39 -48 -79 -26 -39 -64 -100 -86 -134 l-38 -62 -19 54 c-10 30 -18 67 -19 82 0 15 -7 42 -16 58 -8 17 -14 32 -12 33 20 11 165 83 171 85 4 0 21 -6 37 -14z m1443 -65 c16 -26 15 -27 -48 -90 -36 -35 -67 -62 -69 -59 -3 2 12 53 32 112 40 119 38 118 85 37z m35 28 c6 -8 7 -19 3 -26 -6 -10 -12 -7 -23 10 -31 50 -32 51 -11 40 11 -6 25 -17 31 -24z m-1351 -28 c14 -11 31 -20 37 -20 6 0 34 -12 61 -26 28 -14 86 -39 130 -56 44 -17 126 -53 183 -80 56 -27 137 -57 178 -68 42 -10 77 -20 79 -22 1 -2 -41 -69 -95 -151 -54 -81 -121 -189 -150 -241 l-53 -93 -44 9 c-25 6 -72 25 -105 44 -33 19 -62 34 -65 34 -10 0 -148 70 -218 110 -38 22 -93 52 -121 66 l-51 27 -14 96 c-8 53 -13 102 -13 108 1 7 42 76 90 153 85 134 90 140 117 135 16 -2 40 -14 54 -25z m1453 -91 c0 -21 -4 -39 -8 -39 -4 0 -25 22 -46 50 -27 35 -36 55 -31 70 6 20 8 19 46 -11 33 -26 39 -36 39 -70z m-505 71 c17 -10 48 -28 70 -40 84 -44 83 -42 50 -110 -15 -32 -35 -62 -43 -65 -9 -3 -36 15 -71 49 -31 29 -72 68 -91 84 l-35 31 34 35 c40 41 45 42 86 16z m-1290 -30 c8 -16 15 -38 15 -49 0 -11 10 -50 22 -86 l21 -66 -22 -47 c-12 -26 -30 -58 -40 -71 l-19 -24 -51 31 c-28 18 -53 32 -56 32 -7 0 -159 92 -177 108 -17 14 -15 17 20 43 41 30 259 159 269 159 1 0 9 -13 18 -30z m1765 -152 c-6 -23 -16 -52 -21 -65 l-9 -24 -42 31 c-77 55 -123 91 -123 97 0 2 27 31 59 63 l60 59 44 -60 c44 -59 45 -61 32 -101z m238 -6 c36 -29 73 -57 81 -62 13 -7 11 -15 -17 -52 -17 -24 -46 -65 -64 -91 l-32 -48 -28 48 c-16 26 -53 93 -84 148 -50 92 -54 103 -48 146 l6 47 60 -41 c33 -23 89 -66 126 -95z m-733 16 l60 -58 -82 0 -81 0 -31 42 c-17 22 -27 46 -24 52 4 6 16 23 27 38 l20 28 25 -23 c14 -12 53 -48 86 -79z m-1707 19 c35 -22 61 -42 58 -44 -3 -3 -31 -23 -63 -43 -39 -26 -60 -35 -64 -27 -4 7 -10 47 -14 91 -6 64 -5 77 7 70 7 -4 41 -25 76 -47z m1939 17 c8 -21 -14 -40 -58 -52 l-35 -9 25 47 c22 41 28 47 44 38 10 -5 21 -16 24 -24z m71 -41 c15 -10 29 -20 32 -23 3 -3 28 -23 55 -44 28 -22 53 -42 58 -46 14 -12 -52 -131 -113 -203 -4 -5 -36 27 -71 70 -34 43 -66 79 -69 81 -9 4 41 144 59 166 17 20 16 20 49 -1z m-450 -23 l23 -30 -46 0 -46 0 16 30 c9 17 19 30 23 30 5 0 18 -13 30 -30z m723 -62 c45 -86 49 -93 86 -152 19 -31 10 -26 -70 40 -51 42 -95 79 -100 83 -9 9 21 111 32 111 5 0 28 -37 52 -82z m-377 20 c-8 -24 -17 -49 -19 -57 -4 -11 -13 -7 -35 14 -17 16 -30 34 -30 39 0 6 21 18 48 27 26 10 48 17 49 18 1 1 -5 -18 -13 -41z m-1758 -3 c30 -19 57 -35 60 -35 3 0 39 -20 80 -45 40 -25 77 -45 81 -45 5 0 16 -7 26 -14 17 -13 17 -16 -3 -66 -11 -28 -30 -66 -43 -84 -18 -27 -26 -31 -47 -25 -14 4 -83 8 -155 8 -176 2 -172 0 -180 73 -4 32 -13 84 -20 114 l-12 54 71 49 c39 28 75 50 79 50 4 1 33 -15 63 -34z m1640 -20 c-11 -29 -71 -115 -78 -113 -4 2 -26 28 -48 58 l-41 55 68 6 c37 3 76 6 87 7 12 1 16 -3 12 -13z m-145 -57 c24 -34 47 -67 51 -73 6 -9 -74 -154 -187 -340 l-40 -66 -70 4 c-64 4 -225 45 -225 57 0 12 111 197 200 334 l95 146 66 0 65 0 45 -62z m-1121 -86 c0 -22 -1 -22 -27 -8 -57 31 -57 29 -27 85 l28 52 13 -53 c7 -29 12 -63 13 -76z m1325 98 l28 -29 -29 -86 -29 -86 -47 52 -46 52 32 51 c18 28 36 57 40 64 11 18 19 15 51 -18z m780 -22 c46 -38 60 -55 51 -63 -24 -23 -194 -125 -209 -125 -8 0 -25 12 -36 26 l-20 26 26 41 c42 67 105 147 115 147 5 0 38 -23 73 -52z m284 -181 c17 -44 15 -43 -41 9 -29 28 -70 62 -90 78 -21 16 -38 32 -38 36 0 5 19 20 43 33 23 14 56 38 72 52 l30 27 6 -104 c3 -56 11 -116 18 -131z m-676 164 c59 -43 137 -114 137 -124 0 -3 -16 -32 -35 -64 -19 -32 -35 -64 -35 -70 0 -20 27 -15 70 12 52 33 65 32 80 -7 7 -18 23 -60 36 -93 26 -66 78 -262 89 -337 6 -40 5 -48 -8 -48 -8 0 -17 3 -19 8 -3 8 -149 126 -172 139 -8 4 -24 26 -37 48 -54 94 -107 164 -202 269 -40 43 -76 85 -80 92 -5 10 7 34 37 73 26 33 46 63 46 66 0 10 32 75 37 75 2 0 27 -17 56 -39z m-2296 -81 c11 -55 19 -100 18 -100 -1 0 -28 8 -61 19 -32 10 -81 24 -107 31 -26 7 -46 18 -44 24 5 14 149 125 163 126 6 0 20 -45 31 -100z m1973 52 c8 -10 37 -46 63 -80 l48 -62 -25 -33 c-28 -36 -86 -91 -91 -85 -2 2 -19 27 -39 56 l-37 52 28 85 c15 46 30 85 33 85 3 0 12 -8 20 -18z m915 -117 c49 -43 97 -82 105 -89 9 -6 26 -28 38 -48 l21 -38 -83 0 c-78 0 -83 -1 -96 -25 -12 -21 -12 -32 -1 -62 13 -35 13 -38 -15 -60 l-29 -24 -141 148 c-124 129 -139 149 -124 158 62 36 159 97 180 114 30 24 31 23 145 -74z m-2350 62 c40 -22 40 -23 43 -90 3 -77 6 -76 -104 -55 l-64 11 29 51 c16 28 31 63 35 79 8 33 10 33 61 4z m1325 -108 c0 -28 -73 -200 -89 -208 -40 -22 -221 -60 -221 -46 0 2 24 42 53 87 30 46 80 129 111 185 l58 103 44 -55 c24 -29 44 -59 44 -66z m-1103 -15 c59 -37 125 -72 213 -112 40 -19 42 -21 18 -22 -27 0 -65 9 -233 56 -49 14 -105 28 -122 31 l-33 5 0 64 0 63 68 -36 c37 -19 77 -42 89 -49z m-877 41 c114 -26 113 -32 -11 -37 -81 -3 -124 -9 -140 -19 -13 -9 -32 -18 -42 -22 -15 -6 -16 -4 -6 14 6 11 26 38 45 59 33 36 37 38 67 28 18 -5 57 -16 87 -23z m2590 6 c14 -28 15 -27 -35 -54 -25 -14 -45 -24 -45 -23 0 12 53 96 61 96 4 0 13 -9 19 -19z m-265 -146 c78 -87 115 -136 164 -218 l23 -38 -64 35 c-103 56 -226 100 -242 87 -11 -9 -18 -4 -34 21 -11 18 -32 50 -47 70 l-28 38 40 37 c22 21 48 51 58 66 17 26 19 27 34 10 9 -10 52 -58 96 -108z m545 -255 c-31 -30 -65 -71 -76 -90 -18 -34 -19 -34 -22 -10 -8 59 -75 297 -99 349 -57 126 -50 124 106 -39 l149 -154 -58 -56z m-815 278 c15 -27 15 -28 -37 -55 -91 -48 -90 -48 -73 -8 24 55 41 98 49 120 7 19 8 19 27 -5 11 -14 26 -37 34 -52z m-1910 40 c3 -13 9 -42 14 -65 l8 -41 -41 -5 c-22 -2 -67 -10 -100 -16 l-58 -12 -94 47 c-52 26 -91 50 -87 54 8 7 66 30 118 48 17 5 76 10 132 11 99 1 103 0 108 -21z m115 -9 c47 -17 105 -37 130 -45 58 -18 71 -27 61 -42 -6 -9 -41 -12 -136 -10 l-129 3 -8 40 c-4 22 -10 50 -13 63 -3 12 -2 22 2 22 5 0 46 -14 93 -31z m189 19 l50 -11 -15 -28 -14 -29 -53 21 c-28 12 -70 26 -92 32 -22 5 -44 14 -49 18 -15 13 114 11 173 -3z m192 -30 l56 -10 -10 -39 c-11 -43 -26 -48 -80 -26 -18 8 -49 17 -69 21 -40 7 -47 21 -28 56 11 21 14 21 131 -2z m253 -54 c65 -18 163 -41 217 -50 55 -10 97 -19 96 -21 -2 -1 -73 4 -158 13 -85 9 -198 18 -251 21 l-98 5 6 26 c13 61 -8 60 188 6z m2311 6 c16 -17 16 -20 3 -15 -9 4 -19 13 -22 21 -7 19 -2 18 19 -6z m-3383 -24 c35 -18 74 -39 87 -45 l23 -13 -32 -16 c-44 -24 -99 -80 -123 -127 l-20 -40 -13 60 c-17 78 -17 154 -1 188 6 15 12 27 13 27 1 0 30 -15 66 -34z m727 -12 c2 -2 -15 -4 -38 -4 -25 0 -40 4 -36 10 5 8 63 3 74 -6z m1617 -95 c133 -191 176 -262 157 -254 -10 3 -38 13 -63 22 -25 8 -61 22 -80 30 -19 8 -44 19 -55 23 -20 9 -114 38 -195 61 -25 7 -49 16 -53 19 -5 4 3 33 16 65 23 55 29 60 103 101 44 24 83 42 89 40 5 -1 42 -49 81 -107z m1026 93 c9 -4 31 -20 50 -37 47 -42 86 -68 138 -93 47 -22 210 -162 284 -242 22 -25 69 -73 104 -107 l63 -61 -16 -31 c-8 -17 -18 -31 -22 -31 -3 0 -29 13 -57 28 -28 16 -64 32 -81 36 -16 4 -37 14 -45 21 -8 7 -37 20 -65 28 -27 8 -79 30 -115 48 -36 19 -87 42 -113 52 l-47 19 0 50 c0 51 -16 125 -32 143 -4 5 -8 15 -8 23 0 8 -14 28 -31 44 -30 29 -34 30 -105 26 l-74 -3 -10 29 c-14 41 -13 45 13 56 26 10 144 12 169 2z m-3003 -66 c13 -55 14 -66 1 -66 -17 0 -160 71 -160 80 0 5 17 12 38 15 20 4 42 8 47 10 6 2 22 4 36 4 23 1 28 -5 38 -43z m241 39 c0 -12 -82 -175 -88 -175 -4 0 -32 13 -62 28 -51 25 -55 30 -67 77 -20 79 -26 75 102 75 63 0 115 -2 115 -5z m228 -4 c10 -6 2 -32 -37 -112 -71 -148 -66 -143 -123 -121 -26 10 -50 21 -54 25 -4 4 -15 7 -24 7 -9 0 -24 6 -34 13 -16 12 -16 15 3 60 11 26 32 68 47 92 l26 45 91 0 c51 0 98 -4 105 -9z m307 -11 c96 -14 305 -40 316 -40 5 0 9 -5 9 -11 0 -20 -290 4 -374 31 -17 5 -67 16 -111 24 l-80 15 85 -5 c47 -3 117 -9 155 -14z m2353 -10 c23 -17 42 -33 42 -36 0 -8 -79 38 -92 53 -19 23 8 14 50 -17z m-3584 -155 c9 -33 16 -96 16 -145 l-1 -85 -44 -23 -45 -22 0 151 c0 127 4 163 23 227 l22 77 6 -60 c4 -33 14 -87 23 -120z m1038 144 c9 -5 34 -9 55 -9 21 0 56 -5 78 -11 97 -25 197 -39 283 -39 l93 0 -19 -27 c-10 -16 -32 -52 -47 -80 l-28 -53 -304 0 c-166 0 -303 2 -303 4 0 1 25 55 55 119 l55 117 32 -7 c18 -3 41 -10 50 -14z m2668 1 c45 -15 134 -38 195 -50 72 -14 282 -69 310 -81 30 -13 -139 -4 -280 14 -175 23 -212 34 -267 83 -53 47 -57 57 -17 49 19 -3 45 -10 59 -15z m-3330 -64 l104 -51 13 -64 c7 -35 12 -65 11 -66 -7 -4 -285 -55 -301 -55 -10 0 -35 -8 -56 -18 l-38 -19 -37 63 c-20 35 -36 66 -36 70 0 3 12 32 26 63 38 85 128 148 189 134 11 -3 67 -28 125 -57z m1761 -1 c-9 -24 -20 -47 -23 -50 -4 -4 -30 0 -60 8 -29 8 -70 18 -90 21 -56 10 -57 26 -1 26 26 0 75 9 108 19 86 27 86 27 66 -24z m459 -24 c99 -38 199 -95 228 -129 24 -28 96 -162 87 -162 -3 0 -46 13 -97 29 -51 16 -108 32 -125 36 -34 7 -66 41 -134 140 -29 43 -69 119 -69 131 0 2 8 0 18 -6 9 -5 51 -23 92 -39z m858 21 c28 -25 64 -135 60 -188 l-3 -43 -75 65 c-41 36 -78 73 -83 82 -4 9 -16 31 -26 47 -32 49 -28 55 42 55 47 0 69 -5 85 -18z m-1700 -33 l89 -41 -29 -54 c-33 -60 -29 -59 -143 -39 -44 8 -106 15 -137 15 l-58 0 43 80 42 80 52 0 c39 0 72 -10 141 -41z m68 20 c25 -7 44 -17 44 -25 0 -19 -6 -17 -65 11 -55 26 -48 31 21 14z m1477 -16 c21 -48 64 -109 88 -126 13 -9 40 -30 59 -48 19 -17 43 -37 53 -44 14 -10 17 -24 15 -66 l-3 -53 -78 94 c-43 52 -85 104 -94 115 -9 11 -38 45 -64 76 -37 42 -45 59 -37 67 21 21 48 13 61 -15z m-1295 -35 c50 -17 92 -36 92 -43 0 -6 -6 -19 -13 -29 -11 -15 -18 -16 -33 -8 -10 6 -54 27 -96 46 -74 33 -87 44 -71 59 11 11 24 9 121 -25z m1372 -170 c107 -129 140 -176 140 -198 0 -27 -2 -28 -32 -20 -18 5 -71 18 -118 29 -201 50 -219 56 -272 102 -34 28 -48 48 -48 66 0 23 77 153 91 153 3 0 21 13 40 29 25 22 37 27 47 19 7 -6 76 -87 152 -180z m525 161 c39 -6 137 -13 218 -17 l148 -7 -55 -106 c-30 -58 -66 -124 -79 -148 l-24 -42 -176 174 c-159 158 -172 174 -139 165 20 -5 69 -14 107 -19z m-3308 -23 c1 -1 -3 -19 -9 -39 -9 -28 -17 -37 -34 -37 -24 0 -28 9 -39 78 l-7 43 44 -22 c23 -12 44 -22 45 -23z m1418 -56 c28 -13 52 -25 54 -26 2 -2 -4 -20 -14 -40 -14 -30 -21 -35 -38 -29 -70 22 -137 38 -174 42 l-43 5 32 58 32 58 51 -23 c27 -12 73 -33 100 -45z m-1318 20 l68 -29 -82 -1 c-46 0 -83 2 -83 5 0 6 23 55 26 55 1 0 33 -13 71 -30z m1490 15 c32 -8 96 -29 143 -46 47 -17 117 -40 155 -50 123 -33 155 -52 211 -132 28 -40 57 -82 63 -95 l12 -23 -38 17 c-21 9 -83 34 -138 56 -55 21 -122 50 -150 63 -252 120 -328 155 -336 155 -5 0 -9 2 -9 4 0 7 22 66 25 66 2 0 30 -7 62 -15z m758 -109 c28 -22 54 -43 58 -47 5 -4 3 -18 -5 -32 -21 -40 -50 -19 -96 68 -22 42 -32 70 -23 63 9 -7 39 -30 66 -52z m-2879 3 c14 -28 24 -52 22 -52 -2 -1 -13 -7 -24 -14 -20 -11 -22 -9 -28 19 -7 36 -8 98 -1 98 2 0 16 -23 31 -51z m1374 46 c0 -2 -23 -49 -50 -103 l-50 -99 -122 49 c-67 27 -142 60 -167 73 -26 13 -77 37 -116 54 l-70 30 288 1 c158 0 287 -2 287 -5z m180 -4 c36 -5 84 -14 107 -20 l42 -12 -34 -52 c-19 -29 -46 -73 -60 -99 l-25 -48 -103 0 c-92 0 -171 10 -183 23 -3 3 19 52 48 111 l53 106 45 0 c25 -1 74 -4 110 -9z m-820 -11 c0 -5 -17 -36 -37 -69 -21 -33 -53 -85 -71 -115 -25 -42 -39 -56 -56 -56 -39 0 -55 22 -71 99 -15 71 -14 75 5 106 12 19 26 36 33 39 23 9 197 6 197 -4z m82 -19 c26 -11 51 -21 56 -21 5 0 40 -16 77 -35 37 -18 102 -48 144 -65 42 -17 85 -35 96 -39 84 -34 84 -36 -11 -39 -49 -2 -93 -7 -98 -12 -6 -6 -26 -10 -45 -10 -38 0 -101 -41 -101 -66 0 -10 -6 -14 -17 -10 -10 2 -79 19 -153 37 -74 18 -137 34 -139 36 -5 4 22 55 86 160 23 40 43 78 43 83 0 6 3 9 8 7 4 -3 28 -14 54 -26z m1468 -99 c69 -33 196 -88 282 -122 86 -34 159 -68 162 -75 5 -14 -2 -12 -154 33 -36 10 -101 25 -145 32 -59 10 -97 24 -150 54 -72 42 -244 116 -271 116 -18 0 -18 12 0 55 l15 34 68 -34 c37 -18 124 -60 193 -93z m-1826 76 c5 -25 -1 -48 -26 -101 l-33 -67 -40 5 c-22 3 -62 10 -90 16 -27 5 -73 12 -102 16 -46 5 -55 9 -77 44 l-25 38 52 14 c28 9 95 23 147 32 52 9 111 20 130 25 55 13 57 12 64 -22z m30 17 c-4 -8 -8 -15 -10 -15 -2 0 -4 7 -4 15 0 8 4 15 10 15 5 0 7 -7 4 -15z m1391 -36 c33 -11 66 -22 72 -24 9 -3 7 -21 -10 -67 l-22 -63 -158 -3 -158 -3 12 23 c6 13 32 56 58 96 l46 74 50 -6 c27 -4 77 -16 110 -27z m1662 -41 c32 -12 69 -29 83 -38 14 -9 48 -25 75 -35 102 -37 285 -124 285 -135 0 -4 -8 -17 -17 -29 -18 -20 -19 -21 -117 -6 -54 9 -129 22 -165 31 -36 9 -85 18 -109 21 -36 4 -48 12 -73 46 -25 34 -29 49 -29 104 0 34 2 63 4 63 2 0 30 -10 63 -22z m-1427 -42 c30 -14 61 -26 68 -26 7 0 30 -11 50 -25 l37 -25 -163 0 c-182 0 -175 -4 -141 77 l20 50 37 -13 c20 -7 62 -24 92 -38z m634 30 c39 -13 82 -26 96 -29 30 -7 54 -42 42 -62 -6 -12 -14 -11 -45 11 -21 14 -69 41 -107 61 -65 32 -80 43 -63 43 3 0 38 -11 77 -24z m34 -136 c85 -63 84 -90 -1 -51 -31 14 -52 35 -77 73 -18 29 -47 71 -64 93 -25 34 -22 32 26 -15 30 -30 83 -75 116 -100z m190 116 c-2 -10 -8 -13 -16 -7 -7 4 -10 15 -6 25 8 21 28 6 22 -18z m-2904 2 c9 -12 15 -23 13 -24 -1 -1 -23 0 -49 3 -67 8 -64 37 4 42 9 0 24 -9 32 -21z m419 -43 l13 -50 -43 3 -42 4 27 54 c15 30 28 51 29 47 2 -4 9 -30 16 -58z m2537 24 c0 -5 -7 -9 -15 -9 -8 0 -15 7 -15 15 0 9 6 12 15 9 8 -4 15 -10 15 -15z m-192 -66 c30 -22 43 -53 23 -53 -4 0 -26 13 -47 30 -21 16 -56 42 -76 57 -21 15 -38 31 -38 35 0 9 100 -40 138 -69z m152 -20 c0 -74 -9 -75 -45 -3 -30 59 -26 78 15 72 30 -4 30 -5 30 -69z m-3070 20 c0 -7 9 -30 20 -50 11 -21 20 -56 20 -78 0 -22 7 -78 15 -124 8 -47 13 -86 12 -88 -13 -12 -85 197 -97 284 -13 87 -7 120 17 88 7 -11 13 -25 13 -32z m106 -35 c69 -122 187 -267 217 -268 13 0 7 -19 -32 -102 -22 -46 -47 -101 -56 -123 l-16 -40 -25 30 c-14 17 -41 56 -60 87 -35 57 -57 147 -83 344 -5 34 -13 70 -18 80 -6 10 -13 31 -17 47 -6 24 -4 27 18 27 20 0 33 -15 72 -82z m52 69 c42 -13 67 -35 130 -116 15 -19 44 -51 65 -71 l39 -36 -23 -47 c-13 -26 -28 -47 -35 -47 -24 0 -150 149 -196 233 -27 47 -48 88 -48 91 0 9 21 7 68 -7z m3058 -64 c31 -26 71 -59 88 -73 18 -14 46 -41 63 -60 17 -20 56 -56 87 -80 38 -31 56 -52 56 -67 0 -21 -5 -23 -53 -23 -42 0 -68 8 -119 35 -36 19 -89 43 -117 55 -28 11 -69 32 -91 46 l-40 27 0 102 0 103 35 -8 c20 -4 60 -30 91 -57z m-3245 -116 c10 -43 39 -121 64 -174 25 -53 45 -107 45 -120 0 -24 -1 -25 -24 -9 -69 45 -181 102 -218 111 l-28 7 0 118 0 117 62 59 63 59 8 -45 c5 -25 17 -80 28 -123z m386 147 c53 -8 100 -17 104 -20 4 -2 -6 -31 -22 -64 -16 -33 -29 -65 -29 -70 0 -19 -16 -9 -62 38 -90 91 -121 132 -104 132 9 0 60 -7 113 -16z m2958 -20 c33 -9 87 -22 120 -31 33 -8 70 -17 83 -20 15 -4 21 -11 18 -22 -3 -9 -8 -51 -12 -93 -8 -92 -1 -94 -127 23 -209 192 -198 174 -82 143z m-311 0 c5 -14 4 -15 -9 -4 -17 14 -19 20 -6 20 5 0 12 -7 15 -16z m-2442 -14 c33 -9 37 -15 48 -60 12 -50 12 -51 -30 -121 l-41 -70 -37 30 c-20 16 -47 40 -60 54 l-24 25 36 76 c37 82 41 84 108 66z m3668 -70 c84 -78 84 -79 53 -80 -21 0 -55 16 -107 51 l-75 51 15 29 c8 16 18 29 22 29 4 0 46 -36 92 -80z m-2931 9 c-37 -68 -20 -65 -159 -35 -107 23 -120 33 -76 61 32 21 96 33 189 34 l78 1 -32 -61z m216 51 c22 -6 56 -15 76 -21 l36 -11 -43 -64 c-23 -36 -44 -69 -46 -75 -2 -6 -24 -4 -63 6 -33 9 -88 22 -123 29 -34 7 -64 15 -66 17 -2 2 12 32 31 67 l35 62 61 0 c34 0 80 -5 102 -10z m131 1 c-5 -8 -56 -3 -56 5 0 2 14 4 31 4 16 0 28 -4 25 -9z m328 -28 c-9 -21 -18 -44 -21 -50 -7 -17 -15 -17 -118 13 -49 14 -104 29 -121 34 -103 25 -60 40 117 40 l159 0 -16 -37z m503 -3 c92 -66 192 -151 222 -189 l31 -38 -37 -6 c-37 -6 -197 28 -303 64 -14 5 -54 13 -90 19 -36 5 -110 22 -165 36 -55 14 -112 28 -128 31 -15 3 -29 9 -32 13 -3 4 5 31 17 60 l22 52 207 -4 208 -4 48 -34z m1103 25 c11 -13 10 -14 -4 -9 -9 3 -16 10 -16 15 0 13 6 11 20 -6z m-2920 -6 c0 -6 -5 -20 -11 -31 -9 -17 -13 -18 -20 -7 -16 25 -10 49 11 49 11 0 20 -5 20 -11z m2346 -7 c25 -21 59 -82 46 -82 -19 0 -95 77 -88 88 10 16 17 15 42 -6z m-2217 -11 c36 -11 102 -27 147 -37 l81 -18 16 -46 c9 -25 39 -83 66 -129 l50 -83 -16 -39 -15 -39 -123 0 c-67 0 -136 -5 -153 -11 -26 -9 -36 -7 -70 15 -22 14 -43 30 -47 36 -4 6 -24 72 -45 147 l-38 136 21 44 c24 50 31 51 126 24z m1841 -11 c30 -10 88 -26 129 -36 l73 -19 25 -55 c13 -30 22 -61 21 -69 -2 -10 -23 -19 -63 -26 l-60 -10 -48 58 c-27 32 -65 70 -86 85 -20 15 -57 44 -82 65 l-44 39 40 -8 c22 -4 65 -15 95 -24z m-920 -15 c68 -17 214 -57 217 -60 2 -1 -9 -30 -24 -64 l-27 -62 -40 6 c-23 4 -65 13 -94 21 -29 7 -80 16 -113 20 -33 4 -62 11 -65 15 -5 9 76 139 86 139 3 -1 30 -7 60 -15z m1906 1 c0 -1 22 -27 48 -58 62 -74 157 -219 153 -233 -5 -16 -127 -19 -127 -3 -1 26 -38 58 -67 58 -19 0 -39 10 -57 29 -28 29 -29 31 -22 112 10 105 12 110 45 103 14 -4 26 -7 27 -8z m-698 -41 c4 -5 -1 -5 -11 -2 -11 4 -29 10 -42 13 -13 3 -26 12 -29 19 -3 10 5 9 35 -4 21 -10 43 -22 47 -26z m87 -3 c-7 -8 -61 25 -58 36 3 8 13 5 33 -10 15 -13 26 -24 25 -26z m735 23 c4 -2 36 -9 71 -14 134 -21 194 -32 202 -40 4 -4 -11 -34 -34 -67 -55 -78 -79 -103 -111 -120 -26 -13 -26 -13 -92 84 -37 53 -82 116 -102 138 l-35 42 46 -9 c26 -5 50 -11 55 -14z m432 -42 c12 -15 10 -16 -12 -9 -14 4 -42 10 -62 13 -36 5 -36 6 -22 29 l15 23 34 -20 c18 -11 39 -27 47 -36z m-4382 -69 l0 -96 -27 7 c-16 4 -29 8 -31 9 -9 10 42 176 55 176 1 0 3 -43 3 -96z m1352 75 c46 -11 89 -22 96 -25 8 -2 -1 -30 -30 -89 -23 -47 -46 -85 -50 -85 -8 0 -90 148 -107 193 -13 33 -14 33 91 6z m1856 -15 c31 -15 52 -28 46 -31 -13 -4 -101 33 -109 47 -9 15 1 12 63 -16z m-114 10 c16 -6 23 -44 8 -44 -5 0 -14 11 -20 25 -12 27 -12 28 12 19z m-784 -46 c19 -5 69 -16 110 -24 64 -12 190 -43 305 -75 17 -5 -89 -7 -245 -4 -238 3 -344 12 -368 30 -2 2 9 27 24 57 l27 55 56 -14 c31 -8 72 -19 91 -25z m-1442 -58 c32 -118 35 -133 20 -124 -33 19 -118 90 -118 97 0 16 65 116 71 109 3 -4 15 -41 27 -82z m677 63 c40 -8 178 -42 181 -46 1 -1 -26 -49 -61 -107 l-62 -105 -80 -3 -80 -3 -27 42 c-31 47 -31 46 31 172 27 54 38 67 51 62 9 -3 31 -9 47 -12z m1646 -8 c24 -14 37 -25 28 -25 -9 0 -24 -9 -34 -20 -20 -22 -61 -27 -67 -8 -6 16 13 78 23 78 4 0 27 -11 50 -25z m-2517 -42 c28 -26 52 -51 54 -55 4 -9 -41 -78 -52 -78 -5 0 -30 17 -55 37 -25 20 -48 38 -50 40 -5 3 42 102 48 103 2 0 27 -21 55 -47z m2758 -37 c81 -52 94 -65 76 -69 -15 -4 -43 10 -101 51 -73 52 -103 82 -80 82 4 0 52 -29 105 -64z m-172 39 c0 -8 -15 -30 -32 -50 -34 -36 -72 -46 -82 -20 -3 9 0 15 8 15 7 0 21 9 31 20 10 11 24 20 30 20 7 0 18 7 25 15 16 19 20 19 20 0z m-1365 -25 c44 -6 87 -16 97 -21 9 -5 30 -9 47 -9 17 0 31 -5 31 -10 0 -8 -116 -247 -124 -257 -1 -1 -39 14 -85 33 -65 28 -149 51 -238 64 -2 0 12 26 30 58 18 31 46 81 62 110 34 60 13 56 180 32z m1407 7 c17 -13 62 -127 53 -135 -14 -14 -99 0 -170 28 -19 7 -18 8 7 18 27 11 78 70 78 90 0 15 11 15 32 -1z m130 -84 c7 -9 3 -16 -16 -24 -31 -14 -38 -9 -60 44 l-15 38 40 -23 c22 -12 45 -28 51 -35z m-358 25 c-9 -32 -8 -31 -48 -18 -45 14 -46 27 -3 33 17 2 38 5 45 5 9 2 11 -5 6 -20z m55 0 c7 -18 4 -25 -12 -31 -26 -10 -31 -4 -23 28 8 31 24 32 35 3z m631 7 c10 -12 10 -15 -4 -15 -9 0 -16 7 -16 15 0 8 2 15 4 15 2 0 9 -7 16 -15z m-2964 -30 c6 -5 36 -28 67 -50 39 -28 57 -49 61 -69 14 -69 -17 -62 -176 36 l-48 30 16 31 c32 63 34 63 80 22z m1419 24 c22 -6 202 -14 403 -18 322 -6 364 -9 379 -24 16 -16 15 -17 -14 -17 -18 0 -49 -11 -70 -24 -45 -29 -103 -86 -103 -102 0 -6 -9 -19 -21 -30 -12 -10 -39 -50 -62 -89 -56 -97 -74 -115 -119 -115 -21 0 -38 5 -38 10 0 6 -15 10 -34 10 -18 0 -39 6 -45 14 -6 7 -28 16 -47 19 -20 4 -44 13 -53 21 -9 7 -33 24 -54 35 -21 12 -49 28 -62 37 -28 18 -43 3 -27 -29 5 -12 15 -37 22 -54 7 -18 16 -33 21 -33 5 0 9 -8 9 -17 0 -16 26 -79 56 -135 23 -42 17 -41 -33 10 -115 115 -190 173 -311 238 -29 15 -51 31 -50 35 2 3 32 65 67 138 l65 131 40 0 c23 0 59 -5 81 -11z m-1598 -48 l52 -38 -26 -38 c-14 -21 -42 -73 -62 -116 l-36 -78 -47 30 c-27 17 -48 35 -48 40 0 13 104 238 110 239 3 0 29 -17 57 -39z m-620 15 c1 -1 7 -49 12 -106 6 -58 17 -143 25 -190 20 -111 19 -123 -5 -77 -33 62 -89 294 -89 366 0 20 3 22 27 16 16 -4 29 -8 30 -9z m3713 -11 c0 -13 -4 -14 -22 -4 -34 17 -34 19 -5 19 18 0 27 -5 27 -15z m135 -17 c31 -22 45 -39 45 -55 0 -13 -4 -23 -9 -23 -5 0 -41 16 -80 37 -49 25 -71 42 -71 55 0 31 62 24 115 -14z m20 22 c3 -6 -1 -7 -9 -4 -18 7 -21 14 -7 14 6 0 13 -4 16 -10z m-3715 -47 c132 -69 139 -76 150 -153 15 -106 13 -376 -4 -408 -23 -45 -31 -102 -14 -102 8 0 19 5 26 12 9 9 12 1 12 -38 l0 -49 -45 50 c-129 142 -179 222 -198 316 -18 85 -44 265 -51 357 -5 57 -4 62 14 62 11 0 60 -21 110 -47z m3455 23 c11 -7 37 -19 58 -25 31 -10 37 -17 37 -39 0 -44 -13 -55 -56 -48 -31 6 -49 19 -87 61 -39 44 -44 54 -29 58 33 9 58 7 77 -7z m-443 -13 c10 -5 41 -64 36 -67 -17 -12 -81 -46 -86 -46 -18 0 -42 66 -36 98 7 32 8 33 43 27 20 -4 39 -9 43 -12z m403 -81 c-2 -3 -17 0 -32 6 -15 6 -54 18 -86 27 -67 18 -70 34 -11 51 39 12 40 11 86 -34 26 -25 46 -48 43 -50z m-2176 20 c-39 -4 -42 -1 -27 33 l12 27 23 -28 23 -29 -31 -3z m1645 31 c11 -23 12 -39 2 -86 l-12 -57 -107 -65 c-142 -85 -221 -139 -287 -195 -91 -78 -181 -134 -197 -124 -16 10 -60 93 -93 174 -12 30 -31 74 -43 97 -11 24 -18 45 -15 48 7 7 69 -25 98 -52 14 -13 34 -23 45 -23 11 0 40 -10 65 -21 25 -11 74 -23 110 -25 l65 -5 34 50 c18 28 43 68 53 89 11 20 31 48 44 63 13 14 24 28 24 31 0 10 62 72 95 95 17 12 46 23 65 26 19 2 36 5 37 5 1 1 9 -10 17 -25z m245 1 c2 -2 -11 -10 -30 -18 -31 -13 -35 -13 -41 2 -14 36 -10 41 30 30 20 -5 39 -12 41 -14z m885 -131 c58 -78 106 -145 106 -148 0 -2 -22 9 -50 26 -27 17 -50 36 -50 43 0 7 -10 18 -22 24 -13 7 -41 23 -63 37 -22 14 -70 41 -107 60 -56 29 -68 40 -68 60 0 24 3 25 54 25 36 0 58 5 66 15 7 9 16 12 20 8 4 -4 55 -72 114 -150z m-3389 86 l87 -51 -46 -33 c-54 -38 -95 -87 -120 -143 -13 -28 -22 -38 -30 -31 -6 5 -32 25 -58 45 l-48 35 46 92 c44 87 73 137 79 137 2 0 42 -23 90 -51z m-421 -28 c12 -14 14 -21 6 -16 -32 17 -50 39 -50 59 1 21 1 21 12 1 6 -11 20 -31 32 -44z m3010 50 c36 -14 114 -384 99 -474 -4 -28 -12 -37 -45 -52 -21 -9 -41 -15 -42 -14 -1 2 -13 56 -26 119 -19 94 -79 288 -115 373 -6 13 2 21 36 37 47 21 63 23 93 11z m434 -27 c70 -38 99 -60 91 -68 -7 -7 -140 14 -161 25 -24 13 -24 79 0 79 2 0 34 -16 70 -36z m-2818 -9 c0 -12 -29 -3 -34 10 -4 13 -2 14 14 5 11 -6 20 -13 20 -15z m2536 -6 c93 -25 104 -37 124 -130 17 -76 6 -138 -34 -196 -29 -43 -37 -48 -74 -51 -47 -4 -42 -15 -66 138 -9 52 -27 135 -40 183 -22 79 -23 88 -8 84 9 -3 54 -16 98 -28z m-2209 -1 c-29 -74 -61 -138 -67 -136 -20 8 -189 124 -190 130 0 10 44 15 159 17 79 1 102 -2 98 -11z m174 -45 l42 -57 -33 -63 c-31 -57 -37 -63 -65 -63 -33 0 -126 42 -145 66 -14 16 5 78 43 141 17 30 23 33 67 33 46 0 49 -2 91 -57z m88 48 c11 -7 9 -16 -12 -45 l-25 -37 -31 38 c-17 21 -31 41 -31 45 0 11 82 10 99 -1z m1504 -48 c-22 -17 -24 -12 -17 27 l7 32 13 -23 c11 -21 11 -26 -3 -36z m-1388 31 c78 -12 245 -75 245 -92 0 -4 -11 -25 -23 -47 l-23 -40 -134 -2 -135 -3 -34 47 -34 47 28 54 c23 44 32 53 49 48 12 -3 39 -9 61 -12z m1549 -43 c50 -111 94 -274 113 -417 5 -39 4 -42 -28 -54 -25 -10 -189 -49 -189 -46 0 1 11 23 25 50 21 42 25 63 25 140 0 80 -23 212 -55 321 -5 17 2 25 32 42 21 12 41 22 44 22 4 1 18 -25 33 -58z m-2109 -31 c58 -39 105 -78 105 -86 0 -8 -3 -13 -7 -11 -5 3 -65 32 -135 66 -116 56 -141 75 -121 94 18 19 62 1 158 -63z m-726 9 l22 -17 -20 -48 c-11 -27 -31 -85 -45 -129 l-24 -80 -1 86 c-1 47 -4 121 -8 165 l-6 78 30 -19 c16 -11 39 -27 52 -36z m3280 12 c-1 -14 -4 -39 -8 -56 -7 -30 -7 -30 -18 15 -6 25 -14 52 -17 61 -6 13 -2 16 18 12 21 -4 26 -11 25 -32z m-2750 0 c26 -20 69 -145 96 -279 8 -40 19 -81 24 -90 15 -30 23 -92 11 -92 -17 0 -85 46 -132 90 -23 22 -85 71 -135 108 -60 43 -93 73 -93 85 0 34 71 127 124 162 59 39 72 41 105 16z m2885 -5 c38 -9 71 -17 73 -20 5 -5 -33 -218 -54 -304 -16 -64 -34 -85 -56 -63 -6 6 -20 11 -32 11 -11 0 -31 9 -45 20 -14 11 -35 20 -47 20 -13 0 -23 4 -23 9 0 6 13 65 29 133 16 68 32 145 36 171 7 43 10 48 29 44 11 -3 52 -12 90 -21z m156 5 l24 -19 -42 11 c-23 6 -42 15 -42 19 0 15 35 8 60 -11z m-826 -159 c18 -105 20 -210 6 -264 -16 -56 -60 -98 -104 -98 l-36 0 0 93 c1 50 9 162 19 246 17 139 21 157 42 174 l24 19 17 -38 c9 -22 23 -81 32 -132z m-1991 49 l68 -31 -68 -133 -68 -132 -14 35 c-7 19 -17 53 -21 75 -11 59 -60 237 -72 258 -7 15 2 13 49 -12 32 -16 88 -43 126 -60z m2886 53 c90 -28 232 -113 274 -164 31 -40 118 -165 162 -234 l37 -58 -113 6 c-107 7 -177 16 -259 36 -62 14 -154 31 -200 37 -25 2 -59 11 -77 19 l-31 14 23 87 c13 49 31 132 40 186 20 114 14 111 144 71z m-1029 -126 c-6 -68 -14 -171 -17 -230 l-6 -108 -231 0 -232 0 -32 45 c-18 25 -32 47 -32 49 0 2 28 23 63 46 34 24 85 62 112 84 112 93 377 262 383 246 2 -5 -2 -65 -8 -132z m-2531 97 c17 -20 31 -39 31 -43 0 -8 -64 -113 -123 -204 -21 -32 -42 -58 -47 -58 -16 0 -12 41 10 97 11 29 25 74 30 100 13 55 49 143 60 143 4 0 22 -16 39 -35z m1567 -16 c117 -67 267 -196 337 -290 l27 -36 -56 -37 c-31 -21 -59 -34 -63 -29 -4 4 -22 42 -40 83 -18 41 -46 89 -61 106 -15 18 -29 36 -31 41 -2 4 -25 27 -50 49 -33 30 -67 48 -120 65 -41 12 -75 23 -77 24 -5 4 31 75 38 75 4 0 47 -23 96 -51z m-478 8 l22 -32 -32 -6 c-18 -4 -41 -10 -50 -14 -10 -4 -18 -4 -18 -1 0 10 44 86 50 86 3 0 15 -15 28 -33z m-951 -69 c35 -25 50 -43 47 -53 -10 -25 -23 -18 -75 38 -75 81 -67 85 28 15z m749 -16 c-7 -6 -116 49 -116 58 0 6 27 -4 59 -22 33 -18 58 -34 57 -36z m-776 -29 l53 -58 -17 -65 c-11 -47 -16 -108 -16 -218 l0 -152 -70 35 c-38 19 -99 45 -135 56 l-65 22 0 75 c0 82 -6 67 90 212 20 30 49 76 64 103 15 26 30 47 35 47 4 0 32 -26 61 -57z m694 36 l47 -20 -63 -41 c-60 -38 -83 -59 -130 -118 -10 -14 7 26 39 87 32 62 59 113 59 113 1 0 23 -9 48 -21z m356 -16 c13 -16 48 -56 78 -91 30 -35 53 -65 50 -67 -2 -2 -60 23 -129 56 -149 72 -173 85 -176 96 -5 14 48 31 103 32 43 1 54 -3 74 -26z m184 -45 c-20 -40 -38 -75 -41 -78 -2 -2 -20 13 -40 35 -20 22 -52 57 -72 78 l-35 37 112 0 112 0 -36 -72z m187 49 c101 -40 180 -131 242 -278 l15 -37 -46 14 c-26 7 -87 25 -137 39 -49 15 -127 37 -172 49 -46 13 -91 30 -101 39 -18 17 -17 20 27 107 45 88 47 90 81 89 19 0 60 -10 91 -22z m-1266 -71 c22 -17 45 -34 50 -38 28 -21 132 -104 143 -115 8 -7 33 -27 58 -44 45 -30 51 -43 35 -68 -19 -29 -118 40 -304 211 -46 43 -56 57 -51 75 7 25 10 24 69 -21z m650 30 c19 -13 18 -15 -6 -52 -14 -22 -56 -93 -93 -159 -99 -175 -86 -165 -145 -114 -73 63 -74 84 -12 167 35 48 73 84 127 120 82 55 99 60 129 38z m125 -53 c30 -14 69 -31 85 -38 17 -8 53 -23 80 -33 28 -11 51 -26 53 -33 2 -13 -15 -43 -117 -199 -63 -98 -162 -220 -177 -220 -9 0 -50 34 -133 108 -40 37 -78 69 -82 70 -15 6 -10 18 49 119 32 54 80 135 106 180 36 62 52 80 65 76 9 -3 41 -17 71 -30z m3062 -202 c36 -43 35 -53 -3 -49 -28 3 -42 17 -115 123 -46 66 -88 129 -94 140 -12 22 166 -158 212 -214z m-3802 94 c36 -33 83 -73 104 -90 22 -16 45 -35 52 -42 6 -7 23 -15 38 -19 14 -3 28 -10 31 -14 6 -10 -48 -125 -103 -218 -49 -82 -43 -81 -134 -16 -25 18 -67 42 -92 54 l-46 20 0 163 c0 119 4 178 16 216 l15 53 27 -23 c15 -13 56 -51 92 -84z m2832 75 c-6 -16 -11 -20 -16 -11 -4 6 -2 19 5 27 16 20 21 12 11 -16z m-87 -40 c-12 -13 -22 -17 -28 -11 -13 13 1 31 25 31 21 0 21 -1 3 -20z m68 -35 c-3 -38 -63 -326 -82 -390 -6 -20 -9 37 -10 173 l-1 202 33 30 c44 40 63 35 60 -15z m110 -3 c7 -5 23 -12 37 -16 14 -3 33 -12 42 -19 16 -13 15 -21 -12 -123 -29 -112 -40 -142 -156 -447 -46 -121 -70 -172 -75 -160 -3 10 -11 80 -18 155 l-12 138 35 142 c19 79 37 159 41 178 3 19 13 67 21 106 l15 72 35 -8 c19 -5 40 -12 47 -18z m-3547 -34 c22 -29 59 -74 83 -100 50 -55 40 -60 -39 -20 -57 28 -60 34 -79 130 -5 23 -7 42 -6 42 2 0 20 -24 41 -52z m1654 27 c15 -8 63 -56 106 -107 42 -51 93 -109 111 -129 27 -28 31 -38 21 -46 -38 -30 -236 -145 -319 -186 -122 -59 -154 -56 -240 20 l-28 26 46 51 c25 28 96 126 156 219 61 92 112 167 114 167 2 0 17 -7 33 -15z m-1495 -55 c-4 -12 -9 -19 -12 -17 -3 3 -2 15 2 27 4 12 9 19 12 17 3 -3 2 -15 -2 -27z m3145 -112 c1 -73 5 -166 9 -207 11 -92 -4 -184 -51 -306 -20 -49 -38 -98 -41 -108 -6 -17 -9 -16 -47 3 l-40 20 30 59 c16 33 39 97 51 143 20 76 21 101 17 291 l-5 208 26 14 c50 27 51 25 51 -117z m-1468 88 c40 -18 101 -44 136 -56 34 -13 65 -26 67 -30 3 -4 -23 -26 -57 -50 l-62 -42 -41 43 c-57 61 -135 155 -135 163 0 12 20 6 92 -28z m143 -13 c28 -8 65 -18 83 -23 42 -10 50 -18 28 -26 -15 -6 -63 8 -141 40 -16 7 -46 19 -65 26 -55 21 -58 31 -4 14 27 -9 72 -22 99 -31z m308 2 l17 -35 -38 1 c-20 1 -48 4 -61 8 -23 6 -22 7 15 34 21 15 41 27 45 27 3 0 13 -16 22 -35z m37 -5 c12 -16 19 -30 16 -30 -2 0 -14 14 -26 30 -12 17 -19 30 -16 30 2 0 14 -13 26 -30z m896 -290 c-3 -58 -13 -132 -22 -165 -9 -33 -19 -71 -23 -85 -8 -34 -53 -110 -64 -110 -13 0 -117 69 -165 111 -23 20 -66 51 -95 69 l-53 32 19 146 19 147 36 30 c20 17 45 38 55 48 16 16 55 28 147 43 19 3 49 12 65 19 62 26 59 30 73 -79 8 -59 11 -145 8 -206z m101 158 c-2 -29 -3 -8 -3 47 0 55 1 79 3 53 2 -26 2 -71 0 -100z m-1061 82 l61 0 21 -50 c12 -27 19 -50 17 -50 -17 0 -136 35 -160 48 -33 16 -45 30 -45 51 0 9 7 11 23 7 12 -3 50 -6 83 -6z m-1266 -36 c39 -36 39 -37 23 -68 -16 -31 -115 -178 -152 -226 -11 -14 -22 -22 -25 -19 -10 9 31 260 48 301 10 23 24 38 38 41 13 2 24 5 26 6 2 0 21 -15 42 -35z m1143 22 c4 -10 0 -12 -14 -9 -10 3 -16 9 -13 14 8 13 21 11 27 -5z m265 -36 l43 -50 -30 0 c-25 0 -32 7 -50 43 -36 75 -24 78 37 7z m422 21 c0 -53 -56 -71 -221 -71 l-126 0 -41 41 c-23 22 -42 45 -42 50 0 5 90 9 215 9 l215 0 0 -29z m79 22 c0 -5 -13 -18 -30 -31 l-29 -24 0 31 c0 28 3 31 30 31 17 0 30 -3 29 -7z m-2782 -50 c36 -12 43 -20 49 -48 3 -19 4 -39 2 -45 -2 -6 -32 20 -68 56 -36 37 -56 63 -45 59 11 -4 39 -14 62 -22z m1996 12 c39 -16 53 -47 82 -185 9 -41 22 -104 30 -139 9 -35 14 -66 11 -68 -4 -4 -289 293 -294 307 -3 7 92 76 134 99 1 1 17 -6 37 -14z m-2007 -87 l61 -63 13 -115 c6 -63 18 -139 25 -167 7 -29 10 -53 6 -53 -3 0 -31 48 -62 108 -50 95 -87 189 -117 302 -6 19 -13 43 -17 54 -13 31 22 5 91 -66z m746 45 c-5 -10 -17 -74 -27 -143 -9 -69 -19 -126 -20 -128 -5 -6 -85 42 -85 51 0 4 17 37 38 71 21 35 51 89 67 119 16 31 31 54 33 52 2 -2 -1 -12 -6 -22z m1407 -14 c30 -11 66 -19 81 -19 25 0 29 -6 53 -87 34 -115 49 -227 45 -336 l-3 -87 -87 81 c-54 50 -88 89 -88 101 0 11 -6 46 -14 77 -7 31 -19 83 -26 116 -6 33 -20 88 -30 123 -17 58 -17 63 -2 56 10 -4 41 -15 71 -25z m-2004 3 c28 -10 83 -34 122 -53 69 -33 72 -36 73 -69 0 -19 3 -46 7 -59 l6 -23 -44 28 c-24 16 -59 43 -78 59 -64 56 -146 135 -141 135 3 0 28 -8 55 -18z m904 -89 l109 -97 -20 -26 c-19 -25 -22 -25 -191 -30 -95 -3 -174 -4 -176 -3 -2 2 8 20 23 40 15 21 53 77 84 125 31 48 58 87 60 88 1 0 51 -44 111 -97z m1648 55 c-3 -18 -9 -60 -12 -93 -3 -33 -8 -79 -11 -102 l-5 -43 -32 17 c-17 9 -81 65 -142 124 l-110 109 130 1 c72 0 139 4 150 9 33 14 37 11 32 -22z m-2507 -77 c14 -13 58 -47 98 -77 49 -37 72 -61 72 -75 0 -19 -4 -18 -47 14 -27 19 -88 64 -138 99 -84 61 -90 67 -93 104 l-3 39 43 -41 c24 -22 54 -51 68 -63z m2201 52 c22 -21 72 -71 112 -111 40 -41 93 -87 118 -103 45 -30 46 -31 38 -72 -4 -23 -20 -93 -36 -154 l-28 -113 -90 0 c-84 0 -92 2 -122 28 l-33 28 0 114 c0 128 -11 210 -41 315 -11 39 -23 78 -25 88 -4 14 1 17 31 17 28 0 45 -8 76 -37z m-337 -240 l80 -82 11 -86 c7 -47 10 -85 8 -85 -2 0 -28 11 -56 24 -29 13 -77 33 -107 46 -30 12 -68 28 -85 35 -16 6 -46 18 -65 25 -19 7 -48 18 -65 25 -16 7 -97 34 -180 60 -82 26 -158 50 -168 54 -14 5 6 19 85 58 98 49 246 141 277 171 13 12 26 2 100 -74 47 -49 121 -126 165 -171z m-1583 141 c52 -31 96 -58 98 -60 2 -2 -2 -17 -9 -33 -22 -54 -88 -49 -162 12 -22 18 -29 34 -34 80 -4 35 -3 57 3 57 6 0 52 -25 104 -56z m-203 -86 c50 -38 92 -72 92 -76 0 -5 -43 -26 -95 -46 -53 -21 -103 -45 -111 -53 -10 -11 -19 -12 -26 -5 -9 9 -28 116 -43 251 l-7 64 48 -34 c27 -18 91 -64 142 -101z m940 19 l21 -22 -45 4 c-44 3 -45 4 -28 22 22 24 26 24 52 -4z m-598 -50 c-39 -10 -45 -5 -30 22 10 20 12 20 37 4 l26 -17 -33 -9z m-182 -30 c-30 -11 -45 -3 -50 27 l-5 25 38 -22 c35 -20 37 -22 17 -30z m636 12 c-16 -17 -51 -49 -78 -71 l-48 -38 -42 24 c-22 13 -65 36 -94 51 -64 33 -71 43 -35 51 15 3 33 7 38 9 6 2 73 4 149 4 l140 1 -30 -31z m218 4 c17 -15 17 -17 -1 -29 -10 -8 -70 -40 -132 -72 -109 -56 -115 -58 -146 -45 -18 7 -33 15 -33 18 0 2 35 39 78 80 l77 76 69 -6 c44 -3 77 -12 88 -22z m-582 -11 c0 -10 -49 -82 -56 -82 -12 0 -104 55 -104 62 0 12 61 26 113 27 26 1 47 -2 47 -7z m2549 -234 c1 -35 -1 -37 -40 -43 -22 -4 -42 -5 -45 -3 -2 3 2 27 10 54 8 27 22 92 32 144 l19 95 11 -105 c7 -58 13 -121 13 -142z m-1684 181 c72 -22 139 -44 150 -49 11 -4 36 -14 55 -20 19 -7 49 -19 65 -25 17 -7 46 -18 65 -25 41 -15 72 -28 155 -65 33 -15 70 -31 83 -36 12 -5 22 -15 22 -24 0 -13 -30 -15 -220 -15 l-220 0 -37 36 c-21 20 -72 62 -114 93 -67 49 -105 80 -199 161 l-25 21 45 -5 c25 -4 104 -25 175 -47z m-742 -12 l97 -54 -28 -20 c-45 -33 -67 -36 -109 -13 -21 11 -43 20 -50 20 -9 0 -13 18 -13 60 0 33 2 60 3 60 2 0 47 -24 100 -53z m2025 -69 c24 -20 65 -49 90 -64 26 -15 49 -28 51 -30 2 -2 -6 -18 -18 -37 l-21 -35 -133 -7 c-72 -4 -148 -5 -168 -3 l-36 3 33 115 c18 63 33 130 34 148 l0 33 63 -43 c34 -23 82 -59 105 -80z m-2348 102 c11 -7 12 -12 3 -21 -9 -9 -16 -8 -32 3 -32 22 -4 39 29 18z m951 -85 c48 -40 112 -90 142 -111 30 -22 62 -49 71 -61 l17 -23 -138 0 c-208 1 -240 7 -365 80 -60 35 -108 65 -108 69 0 3 57 36 128 72 102 53 131 64 146 56 11 -5 59 -42 107 -82z m-1013 56 c15 -10 32 -20 39 -22 8 -3 2 -21 -19 -54 l-31 -49 -18 44 c-20 51 -24 100 -8 100 6 0 23 -8 37 -19z m-44 -98 c6 -19 4 -23 -15 -23 -12 0 -38 4 -58 10 -20 5 -63 15 -95 21 -70 13 -67 16 59 65 l80 31 11 -41 c5 -23 14 -51 18 -63z m228 45 c-7 -7 -25 -3 -56 13 -25 12 -46 25 -46 29 0 18 17 17 62 -6 35 -18 47 -29 40 -36z m78 32 c0 -31 -16 -41 -26 -15 -5 13 11 45 22 45 2 0 4 -13 4 -30z m-770 -30 c58 -16 112 -30 121 -30 9 0 22 -6 28 -13 8 -11 2 -22 -29 -51 l-40 -36 -37 24 c-21 13 -49 35 -63 48 -14 12 -42 38 -63 56 -21 17 -34 32 -30 32 5 0 55 -13 113 -30z m655 -31 c6 -6 0 -18 -16 -34 -22 -22 -30 -24 -72 -19 l-47 7 26 48 26 47 37 -20 c20 -11 40 -24 46 -29z m115 -14 c0 -12 -5 -12 -34 3 -18 9 -31 23 -29 29 7 17 63 -12 63 -32z m1549 -34 c119 -109 108 -155 -21 -96 -55 25 -55 26 -62 78 -7 60 -8 102 -2 96 2 -2 41 -37 85 -78z m915 -2 c-16 -63 -28 -88 -39 -77 -3 3 6 38 21 77 15 39 28 70 30 68 2 -2 -4 -32 -12 -68z m-2177 39 c17 -14 9 -25 -38 -49 -38 -19 -42 -19 -66 -4 l-25 17 24 16 c12 9 29 22 37 29 13 14 45 9 68 -9z m-287 -65 c0 -19 -3 -20 -32 -13 -18 5 -48 12 -65 17 l-33 8 22 26 22 26 43 -21 c31 -15 43 -27 43 -43z m98 32 c3 -3 -2 -7 -10 -10 -21 -8 -68 12 -68 30 0 14 4 14 37 0 20 -9 39 -18 41 -20z m-1143 3 c17 -5 44 -16 60 -23 17 -7 48 -18 70 -25 22 -6 60 -19 85 -27 25 -9 57 -18 73 -20 15 -3 27 -8 27 -12 0 -3 -15 -27 -33 -53 l-33 -47 -42 24 c-48 27 -94 61 -178 130 -34 27 -70 56 -80 63 -21 14 -25 15 51 -10z m665 -14 c36 -8 73 -14 83 -14 22 0 21 -4 -3 -49 -28 -52 -60 -138 -60 -164 -1 -18 -13 -10 -68 48 -80 84 -119 140 -128 181 l-6 31 59 -9 c32 -5 87 -16 123 -24z m763 -5 c23 -12 53 -29 67 -39 14 -10 43 -27 65 -39 l40 -22 -90 6 c-83 6 -146 22 -203 51 -22 11 -22 12 20 37 53 32 49 32 101 6z m-955 -31 c23 -49 37 -108 26 -108 -11 0 -101 59 -115 76 -10 12 -8 18 10 30 12 9 27 22 34 29 18 22 24 18 45 -27z m380 12 l22 0 -26 -40 c-15 -22 -28 -40 -31 -40 -4 0 -15 27 -28 69 -7 22 -5 23 16 18 13 -4 34 -7 47 -7z m234 -5 c0 -5 -5 -11 -11 -13 -6 -2 -11 4 -11 13 0 9 5 15 11 13 6 -2 11 -8 11 -13z m124 0 c25 -19 15 -19 -27 0 -25 10 -29 14 -13 15 11 0 29 -7 40 -15z m-212 -30 l49 -12 -31 -21 c-40 -29 -132 -72 -154 -72 -34 0 -33 46 2 90 34 43 25 42 134 15z m173 -3 c-29 -6 -74 8 -58 18 8 4 28 3 45 -3 23 -9 27 -12 13 -15z m2227 -6 c21 -9 37 -19 35 -20 -2 -2 -30 -6 -61 -10 l-57 -6 17 30 c9 16 19 29 22 27 3 -2 22 -11 44 -21z m-2642 -98 c-25 -26 -47 -46 -49 -44 -2 2 10 38 28 81 l33 77 17 -34 18 -33 -47 -47z m376 84 c8 -6 0 -15 -28 -31 l-40 -22 0 30 c0 27 3 31 28 31 15 0 33 -4 40 -8z m-756 -32 c10 0 18 -4 18 -10 0 -5 8 -10 18 -10 36 0 120 -73 142 -122 11 -26 20 -50 20 -53 0 -4 -35 -5 -77 -3 -76 4 -80 5 -155 59 l-77 56 37 50 c22 31 41 47 47 42 5 -5 17 -9 27 -9z m212 -66 c19 -22 33 -40 32 -41 -5 -5 -86 37 -86 45 0 4 -5 25 -10 47 l-9 40 20 -27 c11 -14 35 -43 53 -64z m742 67 c16 -5 49 -14 74 -21 52 -14 126 -38 155 -50 11 -5 34 -13 50 -19 17 -5 62 -23 100 -39 39 -16 93 -35 120 -42 47 -12 265 -140 482 -283 l93 -61 -68 -20 c-59 -17 -99 -20 -322 -20 -213 -1 -267 2 -325 17 -93 23 -221 54 -324 77 -86 20 -111 33 -111 55 0 17 -91 99 -140 126 -36 20 -38 24 -44 88 -12 136 -12 137 47 176 49 34 55 35 118 30 36 -3 79 -9 95 -14z m1224 3 c0 -2 -7 -4 -15 -4 -8 0 -15 4 -15 10 0 5 7 7 15 4 8 -4 15 -8 15 -10z m170 0 c0 -2 -7 -4 -15 -4 -8 0 -15 4 -15 10 0 5 7 7 15 4 8 -4 15 -8 15 -10z m-1680 -14 c0 -27 -158 -106 -167 -83 -6 16 12 32 37 33 8 1 40 16 70 35 30 18 56 34 58 34 1 1 2 -8 2 -19z m2540 10 c0 -5 -7 -10 -15 -10 -8 0 -15 5 -15 10 0 6 7 10 15 10 8 0 15 -4 15 -10z m-113 -12 c-2 -7 -15 -55 -28 -105 l-24 -93 -95 0 -95 1 30 25 c115 98 147 129 160 155 15 28 63 44 52 17z m93 -31 c0 -5 -19 -45 -41 -88 -29 -56 -47 -79 -60 -79 -11 0 -19 4 -19 9 0 12 28 125 41 168 l10 32 35 -16 c19 -9 34 -21 34 -26z m-1898 13 c13 -10 32 -26 43 -34 19 -15 19 -15 -6 -16 -31 0 -143 34 -179 55 -24 13 -21 14 47 15 58 0 77 -4 95 -20z m233 2 l170 -5 55 -43 c30 -23 69 -55 85 -69 l30 -26 -50 6 c-27 3 -70 10 -95 15 -25 5 -90 16 -145 25 -128 22 -149 29 -207 68 -47 31 -65 56 -30 42 9 -4 94 -10 187 -13z m1330 -23 c-47 -48 -167 -129 -193 -129 -10 0 -42 12 -70 26 -57 28 -58 33 -25 97 13 25 18 27 81 28 37 0 85 4 107 8 22 5 62 9 90 10 l49 1 -39 -41z m166 23 c-13 -24 -86 -89 -173 -154 -30 -23 -47 -28 -92 -28 -30 0 -57 4 -60 8 -3 5 13 16 34 26 22 10 75 51 118 91 76 73 78 74 130 75 48 0 52 -2 43 -18z m-2568 -16 c5 -13 -14 -26 -58 -41 -16 -5 -14 0 9 24 33 34 41 37 49 17z m1677 -66 l0 -80 -47 1 c-27 1 -78 4 -114 8 -62 6 -70 10 -125 57 -33 29 -70 61 -84 73 l-25 20 198 1 197 0 0 -80z m153 67 c16 -11 16 -20 6 -90 l-12 -78 -46 6 c-85 12 -81 8 -81 96 l0 79 58 0 c32 0 66 -6 75 -13z m132 -12 c17 -14 25 -25 18 -25 -6 0 -14 4 -18 9 -3 5 -19 12 -35 16 -37 8 -49 25 -18 25 13 -1 37 -12 53 -25z m135 13 c-1 -7 -9 -27 -18 -45 l-17 -32 -42 40 c-24 22 -43 42 -43 44 0 3 27 5 60 5 42 0 60 -4 60 -12z m690 -63 c19 -91 15 -99 -52 -103 l-57 -3 21 48 c24 55 60 113 70 113 4 0 12 -25 18 -55z m-2570 11 c0 -18 3 -60 6 -94 l7 -61 -44 12 c-46 11 -51 15 -87 61 -32 41 -28 53 26 76 26 11 54 25 62 30 25 15 30 11 30 -24z m1754 -7 l85 -41 -16 -34 -17 -34 -88 0 c-60 0 -88 4 -88 12 0 34 23 138 31 138 5 0 47 -18 93 -41z m872 25 c22 -8 55 -22 74 -31 53 -24 151 -53 183 -53 16 0 26 -4 23 -9 -3 -4 -58 -11 -123 -15 -65 -4 -132 -9 -149 -12 -31 -6 -31 -6 -38 49 -3 31 -9 62 -12 71 -8 20 -6 20 42 0z m-2816 -24 c9 -17 4 -22 -49 -48 -53 -26 -61 -27 -85 -15 -28 15 -27 33 3 33 10 0 21 3 25 8 6 5 77 37 93 41 1 1 7 -8 13 -19z m-532 -52 l62 -43 -91 -3 c-50 -1 -94 -1 -96 2 -6 5 45 86 55 86 4 0 35 -19 70 -42z m1457 32 c13 -6 15 -9 5 -9 -8 0 -22 4 -30 9 -18 12 -2 12 25 0z m-1135 -40 c0 -18 -19 -11 -30 11 -11 19 -10 20 9 9 12 -6 21 -15 21 -20z m1363 0 c28 -6 88 -15 132 -21 116 -15 119 -16 146 -40 l24 -21 -65 7 c-36 4 -92 13 -125 21 -33 7 -100 23 -150 34 -49 11 -95 26 -103 34 -14 14 6 12 141 -14z m-1100 -22 c22 -31 25 -39 11 -34 -9 4 -44 9 -76 13 -32 3 -58 9 -58 12 0 6 78 49 90 50 3 0 18 -18 33 -41z m-303 4 c0 -15 -2 -15 -10 -2 -13 20 -13 33 0 25 6 -3 10 -14 10 -23z m2328 -7 l27 -25 -43 0 c-24 0 -41 3 -39 8 2 4 7 15 10 25 8 22 13 22 45 -8z m1382 -6 l0 -31 -52 7 c-29 4 -63 11 -76 16 -13 5 -35 10 -50 10 -28 1 102 25 151 28 24 1 27 -2 27 -30z m-3609 11 c6 0 7 -4 4 -10 -8 -13 -65 -13 -65 -1 0 12 21 21 38 15 8 -2 18 -4 23 -4z m3819 -21 c-82 -31 -112 -39 -140 -39 -20 0 -22 2 -10 10 8 5 26 10 40 10 14 1 48 9 75 20 28 10 59 18 70 19 11 0 -5 -9 -35 -20z m-371 -17 l84 -18 -54 -21 c-30 -12 -85 -31 -123 -43 -37 -12 -82 -30 -100 -40 -17 -10 -41 -21 -53 -24 -12 -4 -59 -29 -105 -56 -45 -28 -86 -50 -89 -50 -15 0 -48 103 -53 166 -7 85 -19 78 159 94 66 6 121 13 124 16 9 9 115 -3 210 -24z m-1691 2 c33 -4 42 -9 42 -25 0 -17 -7 -19 -68 -19 -60 0 -72 3 -102 28 l-34 29 59 -4 c33 -2 79 -6 103 -9z m-358 -20 c41 -8 100 -19 130 -24 30 -6 71 -13 90 -17 22 -4 62 -28 108 -66 67 -55 72 -63 72 -98 0 -33 -5 -41 -30 -54 -17 -9 -36 -13 -43 -9 -7 4 -61 39 -122 79 -245 160 -285 185 -294 185 -5 0 -15 8 -22 17 -13 15 -11 16 11 9 14 -4 59 -14 100 -22z m530 -10 c0 -10 -14 -14 -55 -14 -46 0 -55 3 -55 18 0 14 8 17 55 14 39 -3 55 -8 55 -18z m-2095 6 c-3 -5 -12 -7 -20 -3 -21 7 -19 13 6 13 11 0 18 -4 14 -10z m70 1 c6 -10 -25 -31 -46 -31 -8 0 -5 7 6 20 20 22 31 25 40 11z m226 -30 c49 -35 184 -101 207 -101 17 0 40 -35 44 -68 l5 -34 -45 7 c-25 4 -68 17 -96 29 -28 13 -91 40 -141 61 -93 38 -145 79 -145 114 0 24 12 29 71 30 38 1 55 -6 100 -38z m99 25 c21 -4 42 -17 53 -31 23 -32 17 -31 -57 6 -67 34 -82 44 -51 36 11 -3 36 -8 55 -11z m1900 5 c0 -14 -39 -21 -112 -21 -63 0 -79 6 -61 23 10 10 173 8 173 -2z m89 5 c-11 -9 -69 -15 -64 -6 3 6 20 10 37 10 17 0 29 -2 27 -4z m95 -22 c15 -14 27 -26 25 -28 -15 -11 -260 -126 -268 -126 -6 0 3 28 20 63 31 62 32 63 87 76 31 7 66 19 77 27 25 18 25 18 59 -12z m81 12 c18 -13 18 -14 -1 -24 -15 -8 -25 -5 -47 14 l-28 24 29 0 c15 0 37 -6 47 -14z m311 -3 c-2 -10 -8 -37 -11 -60 -4 -24 -10 -43 -14 -43 -9 0 -154 62 -195 84 -26 13 -26 15 -9 25 10 6 67 11 126 11 98 0 108 -2 103 -17z m54 5 c-1 -18 -49 -106 -50 -90 -1 33 24 102 36 102 8 0 14 -6 14 -12z m181 -75 c7 -49 21 -106 30 -128 10 -23 14 -41 8 -43 -5 -2 -65 24 -134 58 l-125 61 35 69 35 70 69 0 69 0 13 -87z m676 52 c1 -5 -32 -20 -75 -33 -114 -34 -259 -92 -273 -108 -6 -8 -17 -14 -24 -14 -11 0 -69 -60 -113 -118 l-17 -23 -47 20 c-25 10 -49 24 -52 29 -5 9 83 72 99 72 3 0 22 10 43 23 20 13 53 29 72 37 19 7 42 19 50 25 8 6 76 31 150 54 74 23 140 44 145 46 17 6 38 1 42 -10z m-3277 -13 c13 -10 21 -26 19 -37 -4 -17 -7 -16 -32 10 -41 45 -32 63 13 27z m-403 -7 c8 -24 -3 -29 -27 -12 -15 11 -18 16 -8 20 22 9 28 8 35 -8z m2617 -39 c64 -30 119 -56 122 -59 7 -6 -32 -83 -46 -92 -13 -8 -21 -2 -136 94 -49 41 -91 76 -94 79 -4 3 28 32 35 32 1 0 55 -24 119 -54z m-2719 34 c-4 -6 -25 -19 -48 -31 l-42 -20 35 30 c33 29 68 42 55 21z m2262 3 c-2 -5 -16 -34 -32 -66 -26 -51 -36 -62 -87 -88 -68 -35 -75 -35 -99 -8 -17 20 -17 22 17 77 19 31 34 62 34 69 0 8 26 13 78 16 42 1 81 4 85 5 5 1 6 -1 4 -5z m-1603 -81 c22 -20 34 -38 29 -39 -6 -2 -39 12 -74 31 -51 28 -65 40 -67 61 l-4 27 39 -22 c22 -12 56 -38 77 -58z m1306 38 c0 -22 -2 -40 -4 -40 -2 0 -24 18 -48 40 l-43 39 48 1 47 0 0 -40z m110 34 c0 -3 -14 -33 -31 -65 -39 -72 -59 -66 -59 17 l0 54 45 0 c25 0 45 -3 45 -6z m525 -64 c53 -46 133 -111 157 -128 18 -13 17 -15 -11 -54 -54 -73 -165 -181 -238 -230 -39 -26 -76 -48 -81 -48 -6 0 -25 16 -43 35 -19 19 -37 35 -41 35 -4 0 -52 45 -107 99 l-101 100 32 54 c24 43 38 56 62 61 17 4 78 30 136 59 58 28 119 57 135 63 33 13 34 12 100 -46z m401 -94 l109 -54 -32 -13 c-18 -8 -33 -17 -33 -21 0 -10 -55 -38 -76 -38 -10 0 -26 -8 -36 -17 -18 -16 -21 -15 -65 29 l-45 46 17 53 c22 67 23 69 39 69 7 0 62 -24 122 -54z m-2348 22 c51 -19 62 -27 62 -45 0 -19 -6 -23 -28 -23 -21 0 -40 12 -70 45 -23 25 -38 45 -34 45 4 0 35 -10 70 -22z m-54 -34 c18 -26 18 -26 -5 -22 -16 2 -25 11 -27 26 -4 29 8 28 32 -4z m1441 -4 c3 -5 1 -10 -4 -10 -6 0 -11 5 -11 10 0 6 2 10 4 10 3 0 8 -4 11 -10z m104 -29 l-22 -40 -18 22 c-18 22 -18 22 19 39 20 10 38 18 40 18 2 0 -7 -18 -19 -39z m-1343 5 c42 -21 45 -25 23 -25 -53 -2 -89 11 -89 30 0 24 6 24 66 -5z m-246 -18 c0 -5 -9 -4 -20 2 -11 6 -20 12 -20 14 0 2 9 2 20 -1 11 -3 20 -9 20 -15z m1529 -12 c22 -23 22 -25 7 -55 l-16 -31 -45 23 c-50 25 -60 57 -22 75 34 17 52 14 76 -12z m-1406 -24 c27 -25 37 -62 17 -62 -19 0 -120 73 -120 86 0 21 72 5 103 -24z m317 18 c8 -5 11 -10 5 -10 -5 0 -17 5 -25 10 -8 5 -10 10 -5 10 6 0 17 -5 25 -10z m1805 -13 c-2 -7 -25 -86 -50 -177 -26 -91 -48 -166 -49 -168 -3 -2 -92 17 -170 37 -63 16 -64 26 -5 64 30 19 84 65 119 102 84 87 81 84 114 127 26 35 50 44 41 15z m-2085 3 c0 -5 -2 -10 -4 -10 -3 0 -8 5 -11 10 -3 6 -1 10 4 10 6 0 11 -4 11 -10z m255 -26 c38 -7 104 -22 145 -32 141 -36 205 -45 350 -53 128 -6 187 -15 318 -44 l33 -8 -44 -42 c-25 -23 -60 -53 -79 -66 -18 -13 -64 -49 -103 -79 -38 -31 -101 -75 -140 -99 -65 -40 -72 -42 -105 -32 -33 10 -228 116 -240 130 -8 9 -141 114 -176 139 -43 30 -188 180 -192 199 -3 13 7 14 79 8 46 -4 115 -14 154 -21z m103 19 c-10 -2 -28 -2 -40 0 -13 2 -5 4 17 4 22 1 32 -1 23 -4z m772 -8 c0 -7 -62 -33 -122 -49 -68 -19 -166 -20 -233 -1 l-50 14 115 1 c76 1 137 7 180 19 65 18 110 25 110 16z m90 -4 c0 -5 -7 -14 -15 -21 -8 -7 -15 -18 -15 -24 0 -7 -16 -26 -36 -44 -34 -31 -36 -31 -87 -21 -104 22 -122 27 -102 28 32 2 154 49 183 70 28 21 72 28 72 12z m938 -67 c-25 -22 -88 -55 -88 -46 0 5 4 22 9 38 5 16 12 42 16 58 l6 29 35 -34 c27 -26 32 -36 22 -45z m-1593 36 c106 -11 176 -32 85 -26 -73 5 -240 33 -249 42 -3 4 12 4 34 0 22 -4 81 -11 130 -16z m680 -87 c-6 -25 -27 -29 -69 -13 l-25 9 27 29 c15 16 36 42 47 58 l20 29 3 -44 c2 -25 1 -55 -3 -68z m246 26 c60 -58 77 -79 59 -73 -14 3 -36 14 -50 23 -14 9 -41 24 -60 34 -19 10 -43 24 -53 32 -18 13 -18 15 -2 39 10 14 19 26 20 26 2 0 40 -36 86 -81z m1059 55 c0 -8 -4 -14 -10 -14 -5 0 -10 2 -10 4 0 2 -3 12 -6 20 -5 12 -2 15 10 10 9 -3 16 -12 16 -20z m-2607 -26 l29 -24 -18 -37 c-21 -44 -32 -47 -40 -9 -6 29 -18 66 -29 96 -7 16 -5 17 11 8 10 -6 32 -21 47 -34z m367 -234 c58 -45 140 -100 183 -123 42 -24 77 -44 77 -46 0 -19 -208 97 -227 127 -4 7 -19 18 -33 24 -14 6 -63 43 -110 82 -127 107 -144 120 -173 133 -27 12 -32 24 -21 54 5 13 28 -4 103 -77 53 -51 144 -129 201 -174z m1024 228 c7 -12 -54 -93 -65 -86 -10 6 -13 107 -3 117 7 7 59 -17 68 -31z m916 -65 c80 -77 300 -316 300 -325 0 -4 12 -15 28 -24 l27 -17 -29 -1 c-22 0 -44 14 -90 58 -182 171 -239 215 -343 263 -35 16 -63 31 -63 34 0 5 101 65 110 65 3 0 30 -24 60 -53z m-852 24 c15 -10 59 -35 97 -56 119 -63 113 -66 -60 -25 -44 10 -93 21 -108 25 l-28 6 27 34 c30 40 36 42 72 16z m-1338 -41 c14 -12 36 -30 50 -38 14 -9 51 -39 83 -66 32 -27 78 -63 102 -80 24 -17 77 -53 116 -81 40 -27 101 -60 137 -71 l65 -21 -26 -18 c-14 -9 -50 -20 -79 -25 -29 -4 -93 -16 -143 -25 -147 -28 -150 -28 -186 -10 -18 10 -50 36 -71 59 -31 33 -37 46 -31 66 4 14 7 50 8 80 0 46 -3 55 -19 58 -11 2 -28 -7 -41 -22 l-22 -26 -17 45 c-51 143 -49 126 -26 178 21 47 21 47 48 33 15 -8 38 -24 52 -36z m1153 -17 c9 -2 17 -12 17 -22 0 -20 -89 -135 -128 -165 -15 -11 -33 -28 -40 -38 -7 -10 -43 -36 -81 -58 l-67 -40 -107 0 c-59 0 -107 4 -107 9 0 5 19 19 43 30 23 11 74 45 112 76 39 30 87 68 108 83 21 15 66 53 99 85 64 60 72 62 151 40z m930 -37 c41 -19 79 -42 87 -50 7 -9 17 -16 23 -16 11 0 114 -88 202 -172 l50 -47 -50 15 c-28 9 -79 22 -115 30 -101 21 -208 52 -283 80 -46 18 -48 21 -44 49 9 56 38 145 47 145 5 0 43 -15 83 -34z m-763 1 c197 -44 310 -72 310 -78 0 -4 -8 -10 -17 -14 -103 -41 -198 -71 -298 -96 -66 -17 -142 -36 -169 -44 -26 -8 -61 -15 -77 -15 l-28 0 42 43 c25 25 48 60 57 87 22 71 73 139 99 134 9 -2 45 -10 81 -17z m-1422 -99 l30 -77 -45 -53 c-25 -29 -53 -64 -62 -78 -22 -35 -31 -40 -60 -28 -14 5 -64 18 -111 29 -47 11 -107 28 -135 39 -27 10 -61 21 -75 23 -14 2 3 5 37 6 59 1 74 5 150 37 17 8 35 14 40 14 5 0 50 40 99 89 49 49 92 87 96 83 4 -4 20 -42 36 -84z m1217 -30 c-18 -34 -56 -74 -95 -96 -39 -24 -31 -6 21 43 27 26 57 58 66 72 22 34 28 21 8 -19z m691 5 l112 -28 -28 -80 c-50 -144 -87 -220 -107 -218 -169 19 -217 26 -277 37 -125 25 -412 41 -719 41 -262 0 -294 2 -255 13 23 7 99 16 168 18 93 4 135 10 165 24 22 10 74 24 115 29 41 6 93 15 115 20 22 6 65 15 95 21 30 6 75 18 100 27 25 9 68 19 95 23 53 9 240 81 259 100 6 6 20 9 31 6 11 -2 70 -17 131 -33z m-1796 -57 c0 -19 -3 -42 -6 -51 -5 -13 -10 -10 -25 15 -16 25 -17 34 -7 50 20 31 38 24 38 -14z m-47 -45 c9 -16 17 -36 17 -45 0 -27 -45 -126 -55 -122 -5 3 -34 12 -64 21 -29 10 -49 20 -44 24 6 3 16 17 23 31 14 27 91 119 100 120 3 0 13 -13 23 -29z m109 -193 c-38 -7 -112 7 -112 21 0 4 7 29 16 55 l16 48 59 -59 58 -58 -37 -7z m313 32 c-3 -5 -16 -10 -28 -9 -20 1 -20 2 3 9 14 4 26 8 28 9 2 1 0 -3 -3 -9z m-60 -37 c-11 -2 -50 -15 -86 -29 l-66 -25 -49 19 -49 20 55 10 c53 9 236 14 195 5z m-360 -13 c-3 -5 -13 -10 -21 -10 -8 0 -12 5 -9 10 3 6 13 10 21 10 8 0 12 -4 9 -10z" fill="#3d4250"/>
</g>
</svg>